<?xml version="1.0" encoding="UTF-8" standalone="no"?>
<!DOCTYPE svg PUBLIC "-//W3C//DTD SVG 1.1//EN"
 "http://www.w3.org/Graphics/SVG/1.1/DTD/svg11.dtd">
<!-- Generated by graphviz version 2.43.0 (0)
 -->
<!-- Title: snakemake_dag Pages: 1 -->
<svg width="1971pt" height="1150pt"
 viewBox="0.00 0.00 1971.00 1150.00" xmlns="http://www.w3.org/2000/svg" xmlns:xlink="http://www.w3.org/1999/xlink">
<g id="graph0" class="graph" transform="scale(1 1) rotate(0) translate(4 1146)">
<title>snakemake_dag</title>
<polygon fill="white" stroke="transparent" points="-4,4 -4,-1146 1967,-1146 1967,4 -4,4"/>
<!-- 0 -->
<g id="node1" class="node">
<title>0</title>
<path fill="none" stroke="#afd856" stroke-width="2" d="M1119,-36C1119,-36 1089,-36 1089,-36 1083,-36 1077,-30 1077,-24 1077,-24 1077,-12 1077,-12 1077,-6 1083,0 1089,0 1089,0 1119,0 1119,0 1125,0 1131,-6 1131,-12 1131,-12 1131,-24 1131,-24 1131,-30 1125,-36 1119,-36"/>
<text text-anchor="middle" x="1104" y="-15.5" font-family="sans" font-size="10.00">all</text>
</g>
<!-- 1 -->
<g id="node2" class="node">
<title>1</title>
<path fill="none" stroke="#566bd8" stroke-width="2" stroke-dasharray="5,2" d="M867,-540C867,-540 745,-540 745,-540 739,-540 733,-534 733,-528 733,-528 733,-516 733,-516 733,-510 739,-504 745,-504 745,-504 867,-504 867,-504 873,-504 879,-510 879,-516 879,-516 879,-528 879,-528 879,-534 873,-540 867,-540"/>
<text text-anchor="middle" x="806" y="-525" font-family="sans" font-size="10.00">check_subj_dwi_metadata</text>
<text text-anchor="middle" x="806" y="-514" font-family="sans" font-size="10.00">subject: 001</text>
</g>
<!-- 42 -->
<g id="node43" class="node">
<title>42</title>
<path fill="none" stroke="#565bd8" stroke-width="2" stroke-dasharray="5,2" d="M854.5,-468C854.5,-468 757.5,-468 757.5,-468 751.5,-468 745.5,-462 745.5,-456 745.5,-456 745.5,-444 745.5,-444 745.5,-438 751.5,-432 757.5,-432 757.5,-432 854.5,-432 854.5,-432 860.5,-432 866.5,-438 866.5,-444 866.5,-444 866.5,-456 866.5,-456 866.5,-462 860.5,-468 854.5,-468"/>
<text text-anchor="middle" x="806" y="-447.5" font-family="sans" font-size="10.00">reg_b0_to_t1_synthsr</text>
</g>
<!-- 1&#45;&gt;42 -->
<g id="edge73" class="edge">
<title>1&#45;&gt;42</title>
<path fill="none" stroke="grey" stroke-width="2" d="M806,-503.7C806,-495.98 806,-486.71 806,-478.11"/>
<polygon fill="grey" stroke="grey" stroke-width="2" points="809.5,-478.1 806,-468.1 802.5,-478.1 809.5,-478.1"/>
</g>
<!-- 2 -->
<g id="node3" class="node">
<title>2</title>
<path fill="none" stroke="#97d856" stroke-width="2" stroke-dasharray="5,2" d="M1126.5,-396C1126.5,-396 1011.5,-396 1011.5,-396 1005.5,-396 999.5,-390 999.5,-384 999.5,-384 999.5,-372 999.5,-372 999.5,-366 1005.5,-360 1011.5,-360 1011.5,-360 1126.5,-360 1126.5,-360 1132.5,-360 1138.5,-366 1138.5,-372 1138.5,-372 1138.5,-384 1138.5,-384 1138.5,-390 1132.5,-396 1126.5,-396"/>
<text text-anchor="middle" x="1069" y="-375.5" font-family="sans" font-size="10.00">synthstrip_b0_fix_header</text>
</g>
<!-- 4 -->
<g id="node5" class="node">
<title>4</title>
<path fill="none" stroke="#bed856" stroke-width="2" stroke-dasharray="5,2" d="M1030,-324C1030,-324 952,-324 952,-324 946,-324 940,-318 940,-312 940,-312 940,-300 940,-300 940,-294 946,-288 952,-288 952,-288 1030,-288 1030,-288 1036,-288 1042,-294 1042,-300 1042,-300 1042,-312 1042,-312 1042,-318 1036,-324 1030,-324"/>
<text text-anchor="middle" x="991" y="-303.5" font-family="sans" font-size="10.00">qc_b0_brainmask</text>
</g>
<!-- 2&#45;&gt;4 -->
<g id="edge8" class="edge">
<title>2&#45;&gt;4</title>
<path fill="none" stroke="grey" stroke-width="2" d="M1049.72,-359.7C1040.08,-351.05 1028.27,-340.45 1017.77,-331.03"/>
<polygon fill="grey" stroke="grey" stroke-width="2" points="1019.84,-328.18 1010.06,-324.1 1015.16,-333.39 1019.84,-328.18"/>
</g>
<!-- 18 -->
<g id="node19" class="node">
<title>18</title>
<path fill="none" stroke="#d6d856" stroke-width="2" d="M1168.5,-252C1168.5,-252 1093.5,-252 1093.5,-252 1087.5,-252 1081.5,-246 1081.5,-240 1081.5,-240 1081.5,-228 1081.5,-228 1081.5,-222 1087.5,-216 1093.5,-216 1093.5,-216 1168.5,-216 1168.5,-216 1174.5,-216 1180.5,-222 1180.5,-228 1180.5,-228 1180.5,-240 1180.5,-240 1180.5,-246 1174.5,-252 1168.5,-252"/>
<text text-anchor="middle" x="1131" y="-231.5" font-family="sans" font-size="10.00">cp_eddy_outputs</text>
</g>
<!-- 2&#45;&gt;18 -->
<g id="edge32" class="edge">
<title>2&#45;&gt;18</title>
<path fill="none" stroke="grey" stroke-width="2" d="M1076.48,-359.87C1087.14,-335.46 1106.8,-290.43 1119.37,-261.64"/>
<polygon fill="grey" stroke="grey" stroke-width="2" points="1122.7,-262.75 1123.49,-252.19 1116.29,-259.95 1122.7,-262.75"/>
</g>
<!-- 22 -->
<g id="node23" class="node">
<title>22</title>
<path fill="none" stroke="#d6d856" stroke-width="2" stroke-dasharray="5,2" d="M1443,-180C1443,-180 1309,-180 1309,-180 1303,-180 1297,-174 1297,-168 1297,-168 1297,-156 1297,-156 1297,-150 1303,-144 1309,-144 1309,-144 1443,-144 1443,-144 1449,-144 1455,-150 1455,-156 1455,-156 1455,-168 1455,-168 1455,-174 1449,-180 1443,-180"/>
<text text-anchor="middle" x="1376" y="-159.5" font-family="sans" font-size="10.00">resample_brainmask_to_t1w</text>
</g>
<!-- 2&#45;&gt;22 -->
<g id="edge42" class="edge">
<title>2&#45;&gt;22</title>
<path fill="none" stroke="grey" stroke-width="2" d="M1085.44,-359.84C1124.18,-319.45 1218.62,-221.35 1227,-216 1248.66,-202.17 1274.4,-191.37 1298.34,-183.23"/>
<polygon fill="grey" stroke="grey" stroke-width="2" points="1299.71,-186.46 1308.12,-180.01 1297.53,-179.81 1299.71,-186.46"/>
</g>
<!-- 40 -->
<g id="node41" class="node">
<title>40</title>
<path fill="none" stroke="#56d8a2" stroke-width="2" stroke-dasharray="5,2" d="M685,-324C685,-324 625,-324 625,-324 619,-324 613,-318 613,-312 613,-312 613,-300 613,-300 613,-294 619,-288 625,-288 625,-288 685,-288 685,-288 691,-288 697,-294 697,-300 697,-300 697,-312 697,-312 697,-318 691,-324 685,-324"/>
<text text-anchor="middle" x="655" y="-303.5" font-family="sans" font-size="10.00">run_eddy_cpu</text>
</g>
<!-- 2&#45;&gt;40 -->
<g id="edge67" class="edge">
<title>2&#45;&gt;40</title>
<path fill="none" stroke="grey" stroke-width="2" d="M999.24,-365.2C916.7,-351.25 781.19,-328.34 707.21,-315.83"/>
<polygon fill="grey" stroke="grey" stroke-width="2" points="707.63,-312.35 697.19,-314.13 706.47,-319.25 707.63,-312.35"/>
</g>
<!-- 46 -->
<g id="node47" class="node">
<title>46</title>
<path fill="none" stroke="#a7d856" stroke-width="2" stroke-dasharray="5,2" d="M608,-252C608,-252 562,-252 562,-252 556,-252 550,-246 550,-240 550,-240 550,-228 550,-228 550,-222 556,-216 562,-216 562,-216 608,-216 608,-216 614,-216 620,-222 620,-228 620,-228 620,-240 620,-240 620,-246 614,-252 608,-252"/>
<text text-anchor="middle" x="585" y="-231.5" font-family="sans" font-size="10.00">eddy_quad</text>
</g>
<!-- 2&#45;&gt;46 -->
<g id="edge83" class="edge">
<title>2&#45;&gt;46</title>
<path fill="none" stroke="grey" stroke-width="2" d="M1010.62,-359.87C912.81,-331.18 717.93,-274 629.95,-248.19"/>
<polygon fill="grey" stroke="grey" stroke-width="2" points="630.85,-244.8 620.27,-245.35 628.88,-251.52 630.85,-244.8"/>
</g>
<!-- 3 -->
<g id="node4" class="node">
<title>3</title>
<path fill="none" stroke="#5692d8" stroke-width="2" stroke-dasharray="5,2" d="M1108.5,-468C1108.5,-468 1049.5,-468 1049.5,-468 1043.5,-468 1037.5,-462 1037.5,-456 1037.5,-456 1037.5,-444 1037.5,-444 1037.5,-438 1043.5,-432 1049.5,-432 1049.5,-432 1108.5,-432 1108.5,-432 1114.5,-432 1120.5,-438 1120.5,-444 1120.5,-444 1120.5,-456 1120.5,-456 1120.5,-462 1114.5,-468 1108.5,-468"/>
<text text-anchor="middle" x="1079" y="-453" font-family="sans" font-size="10.00">synthstrip_b0</text>
<text text-anchor="middle" x="1079" y="-442" font-family="sans" font-size="10.00">desc: dwiref</text>
</g>
<!-- 3&#45;&gt;2 -->
<g id="edge5" class="edge">
<title>3&#45;&gt;2</title>
<path fill="none" stroke="grey" stroke-width="2" d="M1076.53,-431.7C1075.43,-423.98 1074.1,-414.71 1072.87,-406.11"/>
<polygon fill="grey" stroke="grey" stroke-width="2" points="1076.32,-405.51 1071.44,-396.1 1069.39,-406.5 1076.32,-405.51"/>
</g>
<!-- 4&#45;&gt;0 -->
<g id="edge1" class="edge">
<title>4&#45;&gt;0</title>
<path fill="none" stroke="grey" stroke-width="2" d="M990.16,-287.84C989.29,-257.6 990.21,-193.38 1010,-144 1025.7,-104.82 1056.99,-67.14 1079.14,-43.58"/>
<polygon fill="grey" stroke="grey" stroke-width="2" points="1081.88,-45.79 1086.27,-36.15 1076.83,-40.94 1081.88,-45.79"/>
</g>
<!-- 5 -->
<g id="node6" class="node">
<title>5</title>
<path fill="none" stroke="#56d892" stroke-width="2" stroke-dasharray="5,2" d="M1733,-324C1733,-324 1671,-324 1671,-324 1665,-324 1659,-318 1659,-312 1659,-312 1659,-300 1659,-300 1659,-294 1665,-288 1671,-288 1671,-288 1733,-288 1733,-288 1739,-288 1745,-294 1745,-300 1745,-300 1745,-312 1745,-312 1745,-318 1739,-324 1733,-324"/>
<text text-anchor="middle" x="1702" y="-303.5" font-family="sans" font-size="10.00">qc_reg_dwi_t1</text>
</g>
<!-- 5&#45;&gt;0 -->
<g id="edge2" class="edge">
<title>5&#45;&gt;0</title>
<path fill="none" stroke="grey" stroke-width="2" d="M1680.87,-287.89C1640.69,-256.02 1549.63,-186.91 1464,-144 1351.71,-87.74 1207.98,-46.18 1141.2,-28.46"/>
<polygon fill="grey" stroke="grey" stroke-width="2" points="1141.72,-24.97 1131.16,-25.82 1139.94,-31.74 1141.72,-24.97"/>
</g>
<!-- 6 -->
<g id="node7" class="node">
<title>6</title>
<path fill="none" stroke="#78d856" stroke-width="2" stroke-dasharray="5,2" d="M1661.5,-396C1661.5,-396 1600.5,-396 1600.5,-396 1594.5,-396 1588.5,-390 1588.5,-384 1588.5,-384 1588.5,-372 1588.5,-372 1588.5,-366 1594.5,-360 1600.5,-360 1600.5,-360 1661.5,-360 1661.5,-360 1667.5,-360 1673.5,-366 1673.5,-372 1673.5,-372 1673.5,-384 1673.5,-384 1673.5,-390 1667.5,-396 1661.5,-396"/>
<text text-anchor="middle" x="1631" y="-375.5" font-family="sans" font-size="10.00">reg_dwi_to_t1</text>
</g>
<!-- 6&#45;&gt;5 -->
<g id="edge10" class="edge">
<title>6&#45;&gt;5</title>
<path fill="none" stroke="grey" stroke-width="2" d="M1648.55,-359.7C1657.23,-351.14 1667.86,-340.66 1677.35,-331.3"/>
<polygon fill="grey" stroke="grey" stroke-width="2" points="1679.99,-333.62 1684.65,-324.1 1675.07,-328.63 1679.99,-333.62"/>
</g>
<!-- 16 -->
<g id="node17" class="node">
<title>16</title>
<path fill="none" stroke="#d8bc56" stroke-width="2" stroke-dasharray="5,2" d="M1591,-324C1591,-324 1505,-324 1505,-324 1499,-324 1493,-318 1493,-312 1493,-312 1493,-300 1493,-300 1493,-294 1499,-288 1505,-288 1505,-288 1591,-288 1591,-288 1597,-288 1603,-294 1603,-300 1603,-300 1603,-312 1603,-312 1603,-318 1597,-324 1591,-324"/>
<text text-anchor="middle" x="1548" y="-303.5" font-family="sans" font-size="10.00">create_cropped_ref</text>
</g>
<!-- 6&#45;&gt;16 -->
<g id="edge30" class="edge">
<title>6&#45;&gt;16</title>
<path fill="none" stroke="grey" stroke-width="2" d="M1610.48,-359.7C1600.13,-350.97 1587.41,-340.24 1576.16,-330.75"/>
<polygon fill="grey" stroke="grey" stroke-width="2" points="1578.18,-327.88 1568.28,-324.1 1573.67,-333.23 1578.18,-327.88"/>
</g>
<!-- 19 -->
<g id="node20" class="node">
<title>19</title>
<path fill="none" stroke="#56d87b" stroke-width="2" stroke-dasharray="5,2" d="M1546.5,-252C1546.5,-252 1453.5,-252 1453.5,-252 1447.5,-252 1441.5,-246 1441.5,-240 1441.5,-240 1441.5,-228 1441.5,-228 1441.5,-222 1447.5,-216 1453.5,-216 1453.5,-216 1546.5,-216 1546.5,-216 1552.5,-216 1558.5,-222 1558.5,-228 1558.5,-228 1558.5,-240 1558.5,-240 1558.5,-246 1552.5,-252 1546.5,-252"/>
<text text-anchor="middle" x="1500" y="-231.5" font-family="sans" font-size="10.00">convert_xfm_ras2itk</text>
</g>
<!-- 6&#45;&gt;19 -->
<g id="edge35" class="edge">
<title>6&#45;&gt;19</title>
<path fill="none" stroke="grey" stroke-width="2" d="M1631.65,-359.71C1631.47,-340.26 1628.38,-308.69 1612,-288 1600.62,-273.63 1584.41,-262.95 1567.84,-255.1"/>
<polygon fill="grey" stroke="grey" stroke-width="2" points="1569.19,-251.87 1558.63,-251.02 1566.36,-258.27 1569.19,-251.87"/>
</g>
<!-- 21 -->
<g id="node22" class="node">
<title>21</title>
<path fill="none" stroke="#56d892" stroke-width="2" stroke-dasharray="5,2" d="M1463,-324C1463,-324 1371,-324 1371,-324 1365,-324 1359,-318 1359,-312 1359,-312 1359,-300 1359,-300 1359,-294 1365,-288 1371,-288 1371,-288 1463,-288 1463,-288 1469,-288 1475,-294 1475,-300 1475,-300 1475,-312 1475,-312 1475,-318 1469,-324 1463,-324"/>
<text text-anchor="middle" x="1417" y="-303.5" font-family="sans" font-size="10.00">convert_xfm_ras2fsl</text>
</g>
<!-- 6&#45;&gt;21 -->
<g id="edge39" class="edge">
<title>6&#45;&gt;21</title>
<path fill="none" stroke="grey" stroke-width="2" d="M1588.46,-363.09C1557.16,-352.85 1514.11,-338.76 1478.98,-327.27"/>
<polygon fill="grey" stroke="grey" stroke-width="2" points="1479.89,-323.89 1469.3,-324.11 1477.71,-330.54 1479.89,-323.89"/>
</g>
<!-- 7 -->
<g id="node8" class="node">
<title>7</title>
<path fill="none" stroke="#56b1d8" stroke-width="2" stroke-dasharray="5,2" d="M1867.5,-612C1867.5,-612 1556.5,-612 1556.5,-612 1550.5,-612 1544.5,-606 1544.5,-600 1544.5,-600 1544.5,-588 1544.5,-588 1544.5,-582 1550.5,-576 1556.5,-576 1556.5,-576 1867.5,-576 1867.5,-576 1873.5,-576 1879.5,-582 1879.5,-588 1879.5,-588 1879.5,-600 1879.5,-600 1879.5,-606 1873.5,-612 1867.5,-612"/>
<text text-anchor="middle" x="1712" y="-597" font-family="sans" font-size="10.00">run_synthSR</text>
<text text-anchor="middle" x="1712" y="-586" font-family="sans" font-size="10.00">prefix: results/snakedwi/sub&#45;001/anat/sub&#45;001_desc&#45;preproc_T1w</text>
</g>
<!-- 7&#45;&gt;6 -->
<g id="edge12" class="edge">
<title>7&#45;&gt;6</title>
<path fill="none" stroke="grey" stroke-width="2" d="M1751.25,-575.91C1810.95,-547.57 1913.14,-488.35 1868,-432 1845.37,-403.75 1746.49,-389.55 1683.82,-383.27"/>
<polygon fill="grey" stroke="grey" stroke-width="2" points="1684,-379.77 1673.71,-382.29 1683.33,-386.74 1684,-379.77"/>
</g>
<!-- 43 -->
<g id="node44" class="node">
<title>43</title>
<path fill="none" stroke="#56d86b" stroke-width="2" stroke-dasharray="5,2" d="M1033,-540C1033,-540 909,-540 909,-540 903,-540 897,-534 897,-528 897,-528 897,-516 897,-516 897,-510 903,-504 909,-504 909,-504 1033,-504 1033,-504 1039,-504 1045,-510 1045,-516 1045,-516 1045,-528 1045,-528 1045,-534 1039,-540 1033,-540"/>
<text text-anchor="middle" x="971" y="-519.5" font-family="sans" font-size="10.00">rigid_reg_t1_to_b0_synthsr</text>
</g>
<!-- 7&#45;&gt;43 -->
<g id="edge76" class="edge">
<title>7&#45;&gt;43</title>
<path fill="none" stroke="grey" stroke-width="2" d="M1544.32,-577.16C1392.07,-562.78 1173.78,-542.16 1055.3,-530.96"/>
<polygon fill="grey" stroke="grey" stroke-width="2" points="1055.49,-527.47 1045.2,-530.01 1054.83,-534.43 1055.49,-527.47"/>
</g>
<!-- 8 -->
<g id="node9" class="node">
<title>8</title>
<path fill="none" stroke="#d87556" stroke-width="2" stroke-dasharray="5,2" d="M1748.5,-684C1748.5,-684 1675.5,-684 1675.5,-684 1669.5,-684 1663.5,-678 1663.5,-672 1663.5,-672 1663.5,-660 1663.5,-660 1663.5,-654 1669.5,-648 1675.5,-648 1675.5,-648 1748.5,-648 1748.5,-648 1754.5,-648 1760.5,-654 1760.5,-660 1760.5,-660 1760.5,-672 1760.5,-672 1760.5,-678 1754.5,-684 1748.5,-684"/>
<text text-anchor="middle" x="1712" y="-663.5" font-family="sans" font-size="10.00">n4_t1_withmask</text>
</g>
<!-- 8&#45;&gt;5 -->
<g id="edge11" class="edge">
<title>8&#45;&gt;5</title>
<path fill="none" stroke="grey" stroke-width="2" d="M1760.79,-661.78C1799.86,-656.77 1853.78,-644.07 1889,-612 1920.55,-583.27 1925,-565.67 1925,-523 1925,-523 1925,-523 1925,-449 1925,-368.78 1821.06,-331.91 1755.1,-316.59"/>
<polygon fill="grey" stroke="grey" stroke-width="2" points="1755.78,-313.15 1745.26,-314.39 1754.26,-319.99 1755.78,-313.15"/>
</g>
<!-- 8&#45;&gt;7 -->
<g id="edge15" class="edge">
<title>8&#45;&gt;7</title>
<path fill="none" stroke="grey" stroke-width="2" d="M1712,-647.7C1712,-639.98 1712,-630.71 1712,-622.11"/>
<polygon fill="grey" stroke="grey" stroke-width="2" points="1715.5,-622.1 1712,-612.1 1708.5,-622.1 1715.5,-622.1"/>
</g>
<!-- 8&#45;&gt;21 -->
<g id="edge38" class="edge">
<title>8&#45;&gt;21</title>
<path fill="none" stroke="grey" stroke-width="2" d="M1663.21,-661.78C1624.14,-656.77 1570.22,-644.07 1535,-612 1503.45,-583.27 1499,-565.67 1499,-523 1499,-523 1499,-523 1499,-449 1499,-402.88 1466.16,-358.26 1442.04,-331.72"/>
<polygon fill="grey" stroke="grey" stroke-width="2" points="1444.59,-329.31 1435.2,-324.4 1439.48,-334.1 1444.59,-329.31"/>
</g>
<!-- 9 -->
<g id="node10" class="node">
<title>9</title>
<path fill="none" stroke="#56d8d8" stroke-width="2" stroke-dasharray="5,2" d="M1713,-907.5C1713,-907.5 1661,-907.5 1661,-907.5 1655,-907.5 1649,-901.5 1649,-895.5 1649,-895.5 1649,-883.5 1649,-883.5 1649,-877.5 1655,-871.5 1661,-871.5 1661,-871.5 1713,-871.5 1713,-871.5 1719,-871.5 1725,-877.5 1725,-883.5 1725,-883.5 1725,-895.5 1725,-895.5 1725,-901.5 1719,-907.5 1713,-907.5"/>
<text text-anchor="middle" x="1687" y="-892.5" font-family="sans" font-size="10.00">import_t1</text>
<text text-anchor="middle" x="1687" y="-881.5" font-family="sans" font-size="10.00">subject: 001</text>
</g>
<!-- 9&#45;&gt;8 -->
<g id="edge16" class="edge">
<title>9&#45;&gt;8</title>
<path fill="none" stroke="grey" stroke-width="2" d="M1708.15,-871.34C1718.69,-861.39 1730.36,-847.91 1736,-833 1753.77,-786.03 1746.6,-769.09 1736,-720 1734.04,-710.92 1730.39,-701.52 1726.51,-693.2"/>
<polygon fill="grey" stroke="grey" stroke-width="2" points="1729.54,-691.42 1721.95,-684.02 1723.27,-694.53 1729.54,-691.42"/>
</g>
<!-- 10 -->
<g id="node11" class="node">
<title>10</title>
<path fill="none" stroke="#d89c56" stroke-width="2" stroke-dasharray="5,2" d="M1715,-756C1715,-756 1623,-756 1623,-756 1617,-756 1611,-750 1611,-744 1611,-744 1611,-732 1611,-732 1611,-726 1617,-720 1623,-720 1623,-720 1715,-720 1715,-720 1721,-720 1727,-726 1727,-732 1727,-732 1727,-744 1727,-744 1727,-750 1721,-756 1715,-756"/>
<text text-anchor="middle" x="1669" y="-735.5" font-family="sans" font-size="10.00">fixheader_synthstrip</text>
</g>
<!-- 9&#45;&gt;10 -->
<g id="edge18" class="edge">
<title>9&#45;&gt;10</title>
<path fill="none" stroke="grey" stroke-width="2" d="M1665.85,-871.34C1655.31,-861.39 1643.64,-847.91 1638,-833 1631.55,-815.96 1633.23,-809.59 1638,-792 1640.58,-782.48 1645.34,-772.92 1650.38,-764.59"/>
<polygon fill="grey" stroke="grey" stroke-width="2" points="1653.38,-766.39 1655.85,-756.09 1647.49,-762.6 1653.38,-766.39"/>
</g>
<!-- 11 -->
<g id="node12" class="node">
<title>11</title>
<path fill="none" stroke="#56d8a9" stroke-width="2" stroke-dasharray="5,2" d="M1715,-830.5C1715,-830.5 1659,-830.5 1659,-830.5 1653,-830.5 1647,-824.5 1647,-818.5 1647,-818.5 1647,-806.5 1647,-806.5 1647,-800.5 1653,-794.5 1659,-794.5 1659,-794.5 1715,-794.5 1715,-794.5 1721,-794.5 1727,-800.5 1727,-806.5 1727,-806.5 1727,-818.5 1727,-818.5 1727,-824.5 1721,-830.5 1715,-830.5"/>
<text text-anchor="middle" x="1687" y="-810" font-family="sans" font-size="10.00">synthstrip_t1</text>
</g>
<!-- 9&#45;&gt;11 -->
<g id="edge20" class="edge">
<title>9&#45;&gt;11</title>
<path fill="none" stroke="grey" stroke-width="2" d="M1687,-871.48C1687,-862.44 1687,-851.1 1687,-840.85"/>
<polygon fill="grey" stroke="grey" stroke-width="2" points="1690.5,-840.71 1687,-830.71 1683.5,-840.71 1690.5,-840.71"/>
</g>
<!-- 10&#45;&gt;8 -->
<g id="edge17" class="edge">
<title>10&#45;&gt;8</title>
<path fill="none" stroke="grey" stroke-width="2" d="M1679.63,-719.7C1684.63,-711.56 1690.69,-701.69 1696.21,-692.7"/>
<polygon fill="grey" stroke="grey" stroke-width="2" points="1699.24,-694.46 1701.49,-684.1 1693.28,-690.79 1699.24,-694.46"/>
</g>
<!-- 11&#45;&gt;10 -->
<g id="edge19" class="edge">
<title>11&#45;&gt;10</title>
<path fill="none" stroke="grey" stroke-width="2" d="M1682.73,-794.32C1680.63,-785.83 1678.04,-775.39 1675.67,-765.88"/>
<polygon fill="grey" stroke="grey" stroke-width="2" points="1679.04,-764.92 1673.24,-756.06 1672.25,-766.61 1679.04,-764.92"/>
</g>
<!-- 12 -->
<g id="node13" class="node">
<title>12</title>
<path fill="none" stroke="#56b1d8" stroke-width="2" stroke-dasharray="5,2" d="M1847,-468C1847,-468 1577,-468 1577,-468 1571,-468 1565,-462 1565,-456 1565,-456 1565,-444 1565,-444 1565,-438 1571,-432 1577,-432 1577,-432 1847,-432 1847,-432 1853,-432 1859,-438 1859,-444 1859,-444 1859,-456 1859,-456 1859,-462 1853,-468 1847,-468"/>
<text text-anchor="middle" x="1712" y="-453" font-family="sans" font-size="10.00">run_synthSR</text>
<text text-anchor="middle" x="1712" y="-442" font-family="sans" font-size="10.00">prefix: results/work/sub&#45;001/dwi/sub&#45;001_desc&#45;dwiref_b0</text>
</g>
<!-- 12&#45;&gt;6 -->
<g id="edge13" class="edge">
<title>12&#45;&gt;6</title>
<path fill="none" stroke="grey" stroke-width="2" d="M1691.98,-431.7C1681.87,-422.97 1669.46,-412.24 1658.48,-402.75"/>
<polygon fill="grey" stroke="grey" stroke-width="2" points="1660.65,-399.99 1650.79,-396.1 1656.07,-405.29 1660.65,-399.99"/>
</g>
<!-- 13 -->
<g id="node14" class="node">
<title>13</title>
<path fill="none" stroke="#566bd8" stroke-width="2" d="M1208.5,-108C1208.5,-108 1113.5,-108 1113.5,-108 1107.5,-108 1101.5,-102 1101.5,-96 1101.5,-96 1101.5,-84 1101.5,-84 1101.5,-78 1107.5,-72 1113.5,-72 1113.5,-72 1208.5,-72 1208.5,-72 1214.5,-72 1220.5,-78 1220.5,-84 1220.5,-84 1220.5,-96 1220.5,-96 1220.5,-102 1214.5,-108 1208.5,-108"/>
<text text-anchor="middle" x="1161" y="-87.5" font-family="sans" font-size="10.00">dtifit_resampled_t1w</text>
</g>
<!-- 13&#45;&gt;0 -->
<g id="edge3" class="edge">
<title>13&#45;&gt;0</title>
<path fill="none" stroke="grey" stroke-width="2" d="M1146.91,-71.7C1140.08,-63.3 1131.74,-53.07 1124.24,-43.86"/>
<polygon fill="grey" stroke="grey" stroke-width="2" points="1126.96,-41.65 1117.93,-36.1 1121.53,-46.07 1126.96,-41.65"/>
</g>
<!-- 14 -->
<g id="node15" class="node">
<title>14</title>
<path fill="none" stroke="#56a9d8" stroke-width="2" d="M1266.5,-180C1266.5,-180 1167.5,-180 1167.5,-180 1161.5,-180 1155.5,-174 1155.5,-168 1155.5,-168 1155.5,-156 1155.5,-156 1155.5,-150 1161.5,-144 1167.5,-144 1167.5,-144 1266.5,-144 1266.5,-144 1272.5,-144 1278.5,-150 1278.5,-156 1278.5,-156 1278.5,-168 1278.5,-168 1278.5,-174 1272.5,-180 1266.5,-180"/>
<text text-anchor="middle" x="1217" y="-159.5" font-family="sans" font-size="10.00">resample_dwi_to_t1w</text>
</g>
<!-- 14&#45;&gt;13 -->
<g id="edge22" class="edge">
<title>14&#45;&gt;13</title>
<path fill="none" stroke="grey" stroke-width="2" d="M1203.16,-143.7C1196.51,-135.39 1188.42,-125.28 1181.11,-116.14"/>
<polygon fill="grey" stroke="grey" stroke-width="2" points="1183.66,-113.73 1174.68,-108.1 1178.2,-118.1 1183.66,-113.73"/>
</g>
<!-- 15 -->
<g id="node16" class="node">
<title>15</title>
<path fill="none" stroke="#8fd856" stroke-width="2" stroke-dasharray="5,2" d="M1411.5,-252C1411.5,-252 1248.5,-252 1248.5,-252 1242.5,-252 1236.5,-246 1236.5,-240 1236.5,-240 1236.5,-228 1236.5,-228 1236.5,-222 1242.5,-216 1248.5,-216 1248.5,-216 1411.5,-216 1411.5,-216 1417.5,-216 1423.5,-222 1423.5,-228 1423.5,-228 1423.5,-240 1423.5,-240 1423.5,-246 1417.5,-252 1411.5,-252"/>
<text text-anchor="middle" x="1330" y="-231.5" font-family="sans" font-size="10.00">create_cropped_ref_dwi_resolution</text>
</g>
<!-- 15&#45;&gt;14 -->
<g id="edge25" class="edge">
<title>15&#45;&gt;14</title>
<path fill="none" stroke="grey" stroke-width="2" d="M1302.36,-215.88C1287.58,-206.72 1269.21,-195.34 1253.3,-185.48"/>
<polygon fill="grey" stroke="grey" stroke-width="2" points="1255.09,-182.48 1244.75,-180.19 1251.41,-188.43 1255.09,-182.48"/>
</g>
<!-- 15&#45;&gt;22 -->
<g id="edge41" class="edge">
<title>15&#45;&gt;22</title>
<path fill="none" stroke="grey" stroke-width="2" d="M1341.37,-215.7C1346.72,-207.56 1353.2,-197.69 1359.11,-188.7"/>
<polygon fill="grey" stroke="grey" stroke-width="2" points="1362.19,-190.38 1364.76,-180.1 1356.34,-186.54 1362.19,-190.38"/>
</g>
<!-- 16&#45;&gt;15 -->
<g id="edge28" class="edge">
<title>16&#45;&gt;15</title>
<path fill="none" stroke="grey" stroke-width="2" d="M1494.95,-287.97C1464.23,-278.1 1425.36,-265.62 1393.08,-255.25"/>
<polygon fill="grey" stroke="grey" stroke-width="2" points="1393.88,-251.84 1383.29,-252.11 1391.74,-258.5 1393.88,-251.84"/>
</g>
<!-- 17 -->
<g id="node18" class="node">
<title>17</title>
<path fill="none" stroke="#d87d56" stroke-width="2" stroke-dasharray="5,2" d="M1421,-468C1421,-468 1151,-468 1151,-468 1145,-468 1139,-462 1139,-456 1139,-456 1139,-444 1139,-444 1139,-438 1145,-432 1151,-432 1151,-432 1421,-432 1421,-432 1427,-432 1433,-438 1433,-444 1433,-444 1433,-456 1433,-456 1433,-462 1427,-468 1421,-468"/>
<text text-anchor="middle" x="1286" y="-453" font-family="sans" font-size="10.00">write_nii_resolution_to_txt</text>
<text text-anchor="middle" x="1286" y="-442" font-family="sans" font-size="10.00">prefix: results/work/sub&#45;001/dwi/sub&#45;001_desc&#45;dwiref_b0</text>
</g>
<!-- 17&#45;&gt;15 -->
<g id="edge29" class="edge">
<title>17&#45;&gt;15</title>
<path fill="none" stroke="grey" stroke-width="2" d="M1289.53,-431.85C1297.15,-394.75 1315.24,-306.81 1324.43,-262.1"/>
<polygon fill="grey" stroke="grey" stroke-width="2" points="1327.87,-262.73 1326.46,-252.23 1321.01,-261.32 1327.87,-262.73"/>
</g>
<!-- 18&#45;&gt;14 -->
<g id="edge26" class="edge">
<title>18&#45;&gt;14</title>
<path fill="none" stroke="grey" stroke-width="2" d="M1152.26,-215.7C1163.09,-206.88 1176.42,-196.03 1188.16,-186.47"/>
<polygon fill="grey" stroke="grey" stroke-width="2" points="1190.44,-189.13 1195.99,-180.1 1186.02,-183.7 1190.44,-189.13"/>
</g>
<!-- 20 -->
<g id="node21" class="node">
<title>20</title>
<path fill="none" stroke="#c6d856" stroke-width="2" d="M1125,-180C1125,-180 1031,-180 1031,-180 1025,-180 1019,-174 1019,-168 1019,-168 1019,-156 1019,-156 1019,-150 1025,-144 1031,-144 1031,-144 1125,-144 1125,-144 1131,-144 1137,-150 1137,-156 1137,-156 1137,-168 1137,-168 1137,-174 1131,-180 1125,-180"/>
<text text-anchor="middle" x="1078" y="-159.5" font-family="sans" font-size="10.00">rotate_bvecs_to_t1w</text>
</g>
<!-- 18&#45;&gt;20 -->
<g id="edge36" class="edge">
<title>18&#45;&gt;20</title>
<path fill="none" stroke="grey" stroke-width="2" d="M1117.9,-215.7C1111.61,-207.39 1103.95,-197.28 1097.04,-188.14"/>
<polygon fill="grey" stroke="grey" stroke-width="2" points="1099.78,-185.96 1090.95,-180.1 1094.2,-190.19 1099.78,-185.96"/>
</g>
<!-- 19&#45;&gt;14 -->
<g id="edge27" class="edge">
<title>19&#45;&gt;14</title>
<path fill="none" stroke="grey" stroke-width="2" d="M1441.4,-218.34C1438.22,-217.55 1435.07,-216.76 1432,-216 1384.16,-204.12 1330.31,-190.85 1288.47,-180.55"/>
<polygon fill="grey" stroke="grey" stroke-width="2" points="1289.19,-177.13 1278.64,-178.14 1287.52,-183.93 1289.19,-177.13"/>
</g>
<!-- 19&#45;&gt;22 -->
<g id="edge43" class="edge">
<title>19&#45;&gt;22</title>
<path fill="none" stroke="grey" stroke-width="2" d="M1469.67,-215.88C1453.3,-206.64 1432.92,-195.13 1415.35,-185.21"/>
<polygon fill="grey" stroke="grey" stroke-width="2" points="1416.88,-182.06 1406.45,-180.19 1413.44,-188.15 1416.88,-182.06"/>
</g>
<!-- 20&#45;&gt;13 -->
<g id="edge23" class="edge">
<title>20&#45;&gt;13</title>
<path fill="none" stroke="grey" stroke-width="2" d="M1098.52,-143.7C1108.87,-134.97 1121.59,-124.24 1132.84,-114.75"/>
<polygon fill="grey" stroke="grey" stroke-width="2" points="1135.33,-117.23 1140.72,-108.1 1130.82,-111.88 1135.33,-117.23"/>
</g>
<!-- 21&#45;&gt;20 -->
<g id="edge37" class="edge">
<title>21&#45;&gt;20</title>
<path fill="none" stroke="grey" stroke-width="2" d="M1358.74,-304.81C1270.21,-303.15 1108.26,-294.25 1072,-252 1057.57,-235.19 1061.14,-209.37 1067.1,-189.86"/>
<polygon fill="grey" stroke="grey" stroke-width="2" points="1070.44,-190.91 1070.35,-180.32 1063.82,-188.66 1070.44,-190.91"/>
</g>
<!-- 22&#45;&gt;13 -->
<g id="edge24" class="edge">
<title>22&#45;&gt;13</title>
<path fill="none" stroke="grey" stroke-width="2" d="M1323.68,-143.97C1293.38,-134.1 1255.05,-121.62 1223.21,-111.25"/>
<polygon fill="grey" stroke="grey" stroke-width="2" points="1224.15,-107.88 1213.55,-108.11 1221.98,-114.53 1224.15,-107.88"/>
</g>
<!-- 23 -->
<g id="node24" class="node">
<title>23</title>
<path fill="none" stroke="#56d882" stroke-width="2" stroke-dasharray="5,2" d="M413.5,-396C413.5,-396 294.5,-396 294.5,-396 288.5,-396 282.5,-390 282.5,-384 282.5,-384 282.5,-372 282.5,-372 282.5,-366 288.5,-360 294.5,-360 294.5,-360 413.5,-360 413.5,-360 419.5,-360 425.5,-366 425.5,-372 425.5,-372 425.5,-384 425.5,-384 425.5,-390 419.5,-396 413.5,-396"/>
<text text-anchor="middle" x="354" y="-375.5" font-family="sans" font-size="10.00">concat_phase_encode_txt</text>
</g>
<!-- 23&#45;&gt;40 -->
<g id="edge65" class="edge">
<title>23&#45;&gt;40</title>
<path fill="none" stroke="grey" stroke-width="2" d="M425.71,-360.32C480.21,-347.65 553.9,-330.51 602.87,-319.12"/>
<polygon fill="grey" stroke="grey" stroke-width="2" points="603.68,-322.53 612.62,-316.85 602.09,-315.71 603.68,-322.53"/>
</g>
<!-- 23&#45;&gt;46 -->
<g id="edge81" class="edge">
<title>23&#45;&gt;46</title>
<path fill="none" stroke="grey" stroke-width="2" d="M381.86,-359.87C423.49,-334.28 501.95,-286.05 548.23,-257.6"/>
<polygon fill="grey" stroke="grey" stroke-width="2" points="550.35,-260.41 557.04,-252.19 546.69,-254.44 550.35,-260.41"/>
</g>
<!-- 24 -->
<g id="node25" class="node">
<title>24</title>
<path fill="none" stroke="#d85e56" stroke-width="2" stroke-dasharray="5,2" d="M405,-830.5C405,-830.5 303,-830.5 303,-830.5 297,-830.5 291,-824.5 291,-818.5 291,-818.5 291,-806.5 291,-806.5 291,-800.5 297,-794.5 303,-794.5 303,-794.5 405,-794.5 405,-794.5 411,-794.5 417,-800.5 417,-806.5 417,-806.5 417,-818.5 417,-818.5 417,-824.5 411,-830.5 405,-830.5"/>
<text text-anchor="middle" x="354" y="-810" font-family="sans" font-size="10.00">get_phase_encode_txt</text>
</g>
<!-- 24&#45;&gt;23 -->
<g id="edge44" class="edge">
<title>24&#45;&gt;23</title>
<path fill="none" stroke="grey" stroke-width="2" d="M354,-794.15C354,-767.02 354,-712.91 354,-667 354,-667 354,-667 354,-521 354,-481 354,-434.65 354,-406.08"/>
<polygon fill="grey" stroke="grey" stroke-width="2" points="357.5,-406.05 354,-396.05 350.5,-406.05 357.5,-406.05"/>
</g>
<!-- 25 -->
<g id="node26" class="node">
<title>25</title>
<path fill="none" stroke="#56d8b1" stroke-width="2" stroke-dasharray="5,2" d="M411,-910C411,-910 89,-910 89,-910 83,-910 77,-904 77,-898 77,-898 77,-881 77,-881 77,-875 83,-869 89,-869 89,-869 411,-869 411,-869 417,-869 423,-875 423,-881 423,-881 423,-898 423,-898 423,-904 417,-910 411,-910"/>
<text text-anchor="middle" x="250" y="-898" font-family="sans" font-size="10.00">get_shell_avg</text>
<text text-anchor="middle" x="250" y="-887" font-family="sans" font-size="10.00">dwi_prefix: results/work/sub&#45;001/dwi/sub&#45;001_acq&#45;AP_desc&#45;degibbs</text>
<text text-anchor="middle" x="250" y="-876" font-family="sans" font-size="10.00">shell: 0</text>
</g>
<!-- 25&#45;&gt;24 -->
<g id="edge45" class="edge">
<title>25&#45;&gt;24</title>
<path fill="none" stroke="grey" stroke-width="2" d="M277.05,-868.99C290.84,-859.05 307.69,-846.9 322.1,-836.5"/>
<polygon fill="grey" stroke="grey" stroke-width="2" points="324.2,-839.3 330.27,-830.61 320.11,-833.63 324.2,-839.3"/>
</g>
<!-- 26 -->
<g id="node27" class="node">
<title>26</title>
<path fill="none" stroke="#56d8d0" stroke-width="2" stroke-dasharray="5,2" d="M522,-1054C522,-1054 478,-1054 478,-1054 472,-1054 466,-1048 466,-1042 466,-1042 466,-1030 466,-1030 466,-1024 472,-1018 478,-1018 478,-1018 522,-1018 522,-1018 528,-1018 534,-1024 534,-1030 534,-1030 534,-1042 534,-1042 534,-1048 528,-1054 522,-1054"/>
<text text-anchor="middle" x="500" y="-1033.5" font-family="sans" font-size="10.00">mrdegibbs</text>
</g>
<!-- 26&#45;&gt;24 -->
<g id="edge46" class="edge">
<title>26&#45;&gt;24</title>
<path fill="none" stroke="grey" stroke-width="2" d="M494.35,-1017.87C481.82,-980.56 451.31,-893.34 432,-869 421.83,-856.18 407.95,-845.02 394.72,-836.13"/>
<polygon fill="grey" stroke="grey" stroke-width="2" points="396.46,-833.09 386.16,-830.62 392.67,-838.97 396.46,-833.09"/>
</g>
<!-- 26&#45;&gt;25 -->
<g id="edge47" class="edge">
<title>26&#45;&gt;25</title>
<path fill="none" stroke="grey" stroke-width="2" d="M465.91,-1033.48C366.81,-1028.71 84.09,-1012.52 57,-982 27.69,-948.97 67.4,-926.88 118.27,-912.68"/>
<polygon fill="grey" stroke="grey" stroke-width="2" points="119.46,-915.99 128.23,-910.04 117.66,-909.22 119.46,-915.99"/>
</g>
<!-- 31 -->
<g id="node32" class="node">
<title>31</title>
<path fill="none" stroke="#d86656" stroke-width="2" stroke-dasharray="5,2" d="M422,-982C422,-982 78,-982 78,-982 72,-982 66,-976 66,-970 66,-970 66,-958 66,-958 66,-952 72,-946 78,-946 78,-946 422,-946 422,-946 428,-946 434,-952 434,-958 434,-958 434,-970 434,-970 434,-976 428,-982 422,-982"/>
<text text-anchor="middle" x="250" y="-967" font-family="sans" font-size="10.00">get_shells_from_bvals</text>
<text text-anchor="middle" x="250" y="-956" font-family="sans" font-size="10.00">dwi_prefix: results/work/sub&#45;001/dwi/sub&#45;001_acq&#45;AP_desc&#45;degibbs_dwi</text>
</g>
<!-- 26&#45;&gt;31 -->
<g id="edge53" class="edge">
<title>26&#45;&gt;31</title>
<path fill="none" stroke="grey" stroke-width="2" d="M465.76,-1025.41C428.68,-1015.03 368.49,-998.18 321.08,-984.9"/>
<polygon fill="grey" stroke="grey" stroke-width="2" points="321.75,-981.46 311.18,-982.13 319.86,-988.2 321.75,-981.46"/>
</g>
<!-- 32 -->
<g id="node33" class="node">
<title>32</title>
<path fill="none" stroke="#d8d356" stroke-width="2" stroke-dasharray="5,2" d="M544.5,-396C544.5,-396 455.5,-396 455.5,-396 449.5,-396 443.5,-390 443.5,-384 443.5,-384 443.5,-372 443.5,-372 443.5,-366 449.5,-360 455.5,-360 455.5,-360 544.5,-360 544.5,-360 550.5,-360 556.5,-366 556.5,-372 556.5,-372 556.5,-384 556.5,-384 556.5,-390 550.5,-396 544.5,-396"/>
<text text-anchor="middle" x="500" y="-375.5" font-family="sans" font-size="10.00">get_eddy_index_txt</text>
</g>
<!-- 26&#45;&gt;32 -->
<g id="edge54" class="edge">
<title>26&#45;&gt;32</title>
<path fill="none" stroke="grey" stroke-width="2" d="M500,-1017.65C500,-990.52 500,-936.41 500,-890.5 500,-890.5 500,-890.5 500,-521 500,-481 500,-434.65 500,-406.08"/>
<polygon fill="grey" stroke="grey" stroke-width="2" points="503.5,-406.05 500,-396.05 496.5,-406.05 503.5,-406.05"/>
</g>
<!-- 37 -->
<g id="node38" class="node">
<title>37</title>
<path fill="none" stroke="#56d8c9" stroke-width="2" stroke-dasharray="5,2" d="M748.5,-982C748.5,-982 671.5,-982 671.5,-982 665.5,-982 659.5,-976 659.5,-970 659.5,-970 659.5,-958 659.5,-958 659.5,-952 665.5,-946 671.5,-946 671.5,-946 748.5,-946 748.5,-946 754.5,-946 760.5,-952 760.5,-958 760.5,-958 760.5,-970 760.5,-970 760.5,-976 754.5,-982 748.5,-982"/>
<text text-anchor="middle" x="710" y="-967" font-family="sans" font-size="10.00">concat_runs_bval</text>
<text text-anchor="middle" x="710" y="-956" font-family="sans" font-size="10.00">desc: degibbs</text>
</g>
<!-- 26&#45;&gt;37 -->
<g id="edge60" class="edge">
<title>26&#45;&gt;37</title>
<path fill="none" stroke="grey" stroke-width="2" d="M534.21,-1023.6C565.36,-1013.21 612.08,-997.64 649.52,-985.16"/>
<polygon fill="grey" stroke="grey" stroke-width="2" points="650.94,-988.38 659.32,-981.89 648.73,-981.74 650.94,-988.38"/>
</g>
<!-- 38 -->
<g id="node39" class="node">
<title>38</title>
<path fill="none" stroke="#567bd8" stroke-width="2" stroke-dasharray="5,2" d="M252,-396C252,-396 172,-396 172,-396 166,-396 160,-390 160,-384 160,-384 160,-372 160,-372 160,-366 166,-360 172,-360 172,-360 252,-360 252,-360 258,-360 264,-366 264,-372 264,-372 264,-384 264,-384 264,-390 258,-396 252,-396"/>
<text text-anchor="middle" x="212" y="-381" font-family="sans" font-size="10.00">concat_runs_bvec</text>
<text text-anchor="middle" x="212" y="-370" font-family="sans" font-size="10.00">desc: degibbs</text>
</g>
<!-- 26&#45;&gt;38 -->
<g id="edge61" class="edge">
<title>26&#45;&gt;38</title>
<path fill="none" stroke="grey" stroke-width="2" d="M465.72,-1035.18C371.59,-1035.05 111.66,-1030.22 44,-982 7.25,-955.81 0,-935.62 0,-890.5 0,-890.5 0,-890.5 0,-521 0,-448.15 87.49,-410.3 150.06,-392.54"/>
<polygon fill="grey" stroke="grey" stroke-width="2" points="151.14,-395.87 159.87,-389.86 149.3,-389.12 151.14,-395.87"/>
</g>
<!-- 39 -->
<g id="node40" class="node">
<title>39</title>
<path fill="none" stroke="#88d856" stroke-width="2" stroke-dasharray="5,2" d="M669.5,-907.5C669.5,-907.5 578.5,-907.5 578.5,-907.5 572.5,-907.5 566.5,-901.5 566.5,-895.5 566.5,-895.5 566.5,-883.5 566.5,-883.5 566.5,-877.5 572.5,-871.5 578.5,-871.5 578.5,-871.5 669.5,-871.5 669.5,-871.5 675.5,-871.5 681.5,-877.5 681.5,-883.5 681.5,-883.5 681.5,-895.5 681.5,-895.5 681.5,-901.5 675.5,-907.5 669.5,-907.5"/>
<text text-anchor="middle" x="624" y="-887" font-family="sans" font-size="10.00">concat_degibbs_dwi</text>
</g>
<!-- 26&#45;&gt;39 -->
<g id="edge62" class="edge">
<title>26&#45;&gt;39</title>
<path fill="none" stroke="grey" stroke-width="2" d="M514.71,-1017.86C536.53,-992.44 577.57,-944.61 602.68,-915.35"/>
<polygon fill="grey" stroke="grey" stroke-width="2" points="605.45,-917.49 609.31,-907.62 600.14,-912.93 605.45,-917.49"/>
</g>
<!-- 27 -->
<g id="node28" class="node">
<title>27</title>
<path fill="none" stroke="#d8cb56" stroke-width="2" stroke-dasharray="5,2" d="M771,-1142C771,-1142 719,-1142 719,-1142 713,-1142 707,-1136 707,-1130 707,-1130 707,-1102 707,-1102 707,-1096 713,-1090 719,-1090 719,-1090 771,-1090 771,-1090 777,-1090 783,-1096 783,-1102 783,-1102 783,-1130 783,-1130 783,-1136 777,-1142 771,-1142"/>
<text text-anchor="middle" x="745" y="-1130" font-family="sans" font-size="10.00">import_dwi</text>
<text text-anchor="middle" x="745" y="-1119" font-family="sans" font-size="10.00">acq: AP</text>
<text text-anchor="middle" x="745" y="-1108" font-family="sans" font-size="10.00">ext: nii.gz</text>
<text text-anchor="middle" x="745" y="-1097" font-family="sans" font-size="10.00">subject: 001</text>
</g>
<!-- 27&#45;&gt;26 -->
<g id="edge49" class="edge">
<title>27&#45;&gt;26</title>
<path fill="none" stroke="grey" stroke-width="2" d="M706.99,-1102.9C662.91,-1088.87 590.38,-1065.77 543.93,-1050.99"/>
<polygon fill="grey" stroke="grey" stroke-width="2" points="544.74,-1047.57 534.15,-1047.87 542.61,-1054.24 544.74,-1047.57"/>
</g>
<!-- 41 -->
<g id="node42" class="node">
<title>41</title>
<path fill="none" stroke="#56d873" stroke-width="2" stroke-dasharray="5,2" d="M901.5,-396C901.5,-396 770.5,-396 770.5,-396 764.5,-396 758.5,-390 758.5,-384 758.5,-384 758.5,-372 758.5,-372 758.5,-366 764.5,-360 770.5,-360 770.5,-360 901.5,-360 901.5,-360 907.5,-360 913.5,-366 913.5,-372 913.5,-372 913.5,-384 913.5,-384 913.5,-390 907.5,-396 901.5,-396"/>
<text text-anchor="middle" x="836" y="-375.5" font-family="sans" font-size="10.00">displacement_field_to_fmap</text>
</g>
<!-- 27&#45;&gt;41 -->
<g id="edge71" class="edge">
<title>27&#45;&gt;41</title>
<path fill="none" stroke="grey" stroke-width="2" d="M783.06,-1104.71C855.5,-1082.82 1011.58,-1024.06 1075,-910 1081.8,-897.77 1110.99,-573.92 1054,-504 1014.77,-455.87 972.25,-499.95 919,-468 892.05,-451.83 868.4,-424.4 853.31,-404.26"/>
<polygon fill="grey" stroke="grey" stroke-width="2" points="856.1,-402.15 847.38,-396.13 850.44,-406.27 856.1,-402.15"/>
</g>
<!-- 28 -->
<g id="node29" class="node">
<title>28</title>
<path fill="none" stroke="#d8cb56" stroke-width="2" stroke-dasharray="5,2" d="M479,-1142C479,-1142 427,-1142 427,-1142 421,-1142 415,-1136 415,-1130 415,-1130 415,-1102 415,-1102 415,-1096 421,-1090 427,-1090 427,-1090 479,-1090 479,-1090 485,-1090 491,-1096 491,-1102 491,-1102 491,-1130 491,-1130 491,-1136 485,-1142 479,-1142"/>
<text text-anchor="middle" x="453" y="-1130" font-family="sans" font-size="10.00">import_dwi</text>
<text text-anchor="middle" x="453" y="-1119" font-family="sans" font-size="10.00">acq: AP</text>
<text text-anchor="middle" x="453" y="-1108" font-family="sans" font-size="10.00">ext: bvec</text>
<text text-anchor="middle" x="453" y="-1097" font-family="sans" font-size="10.00">subject: 001</text>
</g>
<!-- 28&#45;&gt;26 -->
<g id="edge50" class="edge">
<title>28&#45;&gt;26</title>
<path fill="none" stroke="grey" stroke-width="2" d="M468.13,-1089.89C473.31,-1081.3 479.11,-1071.67 484.33,-1063.01"/>
<polygon fill="grey" stroke="grey" stroke-width="2" points="487.35,-1064.78 489.51,-1054.41 481.35,-1061.17 487.35,-1064.78"/>
</g>
<!-- 29 -->
<g id="node30" class="node">
<title>29</title>
<path fill="none" stroke="#d8cb56" stroke-width="2" stroke-dasharray="5,2" d="M573,-1142C573,-1142 521,-1142 521,-1142 515,-1142 509,-1136 509,-1130 509,-1130 509,-1102 509,-1102 509,-1096 515,-1090 521,-1090 521,-1090 573,-1090 573,-1090 579,-1090 585,-1096 585,-1102 585,-1102 585,-1130 585,-1130 585,-1136 579,-1142 573,-1142"/>
<text text-anchor="middle" x="547" y="-1130" font-family="sans" font-size="10.00">import_dwi</text>
<text text-anchor="middle" x="547" y="-1119" font-family="sans" font-size="10.00">acq: AP</text>
<text text-anchor="middle" x="547" y="-1108" font-family="sans" font-size="10.00">ext: bval</text>
<text text-anchor="middle" x="547" y="-1097" font-family="sans" font-size="10.00">subject: 001</text>
</g>
<!-- 29&#45;&gt;26 -->
<g id="edge51" class="edge">
<title>29&#45;&gt;26</title>
<path fill="none" stroke="grey" stroke-width="2" d="M531.87,-1089.89C526.69,-1081.3 520.89,-1071.67 515.67,-1063.01"/>
<polygon fill="grey" stroke="grey" stroke-width="2" points="518.65,-1061.17 510.49,-1054.41 512.65,-1064.78 518.65,-1061.17"/>
</g>
<!-- 30 -->
<g id="node31" class="node">
<title>30</title>
<path fill="none" stroke="#d8cb56" stroke-width="2" stroke-dasharray="5,2" d="M1071,-1142C1071,-1142 1019,-1142 1019,-1142 1013,-1142 1007,-1136 1007,-1130 1007,-1130 1007,-1102 1007,-1102 1007,-1096 1013,-1090 1019,-1090 1019,-1090 1071,-1090 1071,-1090 1077,-1090 1083,-1096 1083,-1102 1083,-1102 1083,-1130 1083,-1130 1083,-1136 1077,-1142 1071,-1142"/>
<text text-anchor="middle" x="1045" y="-1130" font-family="sans" font-size="10.00">import_dwi</text>
<text text-anchor="middle" x="1045" y="-1119" font-family="sans" font-size="10.00">acq: AP</text>
<text text-anchor="middle" x="1045" y="-1108" font-family="sans" font-size="10.00">ext: json</text>
<text text-anchor="middle" x="1045" y="-1097" font-family="sans" font-size="10.00">subject: 001</text>
</g>
<!-- 30&#45;&gt;26 -->
<g id="edge52" class="edge">
<title>30&#45;&gt;26</title>
<path fill="none" stroke="grey" stroke-width="2" d="M1006.68,-1109.52C908.53,-1095.47 648.52,-1058.26 544.21,-1043.33"/>
<polygon fill="grey" stroke="grey" stroke-width="2" points="544.42,-1039.82 534.03,-1041.87 543.43,-1046.75 544.42,-1039.82"/>
</g>
<!-- 30&#45;&gt;41 -->
<g id="edge72" class="edge">
<title>30&#45;&gt;41</title>
<path fill="none" stroke="grey" stroke-width="2" d="M1076.77,-1089.94C1107.35,-1062.77 1149,-1016.34 1149,-965 1149,-965 1149,-965 1149,-737 1149,-628.61 1149.85,-584.26 1077,-504 1049.15,-473.32 1028.15,-486.35 991,-468 949.22,-447.36 903.12,-420.31 872.14,-401.47"/>
<polygon fill="grey" stroke="grey" stroke-width="2" points="873.79,-398.37 863.43,-396.15 870.14,-404.35 873.79,-398.37"/>
</g>
<!-- 31&#45;&gt;25 -->
<g id="edge48" class="edge">
<title>31&#45;&gt;25</title>
<path fill="none" stroke="grey" stroke-width="2" d="M250,-945.82C250,-938.2 250,-929 250,-920.32"/>
<polygon fill="grey" stroke="grey" stroke-width="2" points="253.5,-920.12 250,-910.12 246.5,-920.12 253.5,-920.12"/>
</g>
<!-- 32&#45;&gt;40 -->
<g id="edge66" class="edge">
<title>32&#45;&gt;40</title>
<path fill="none" stroke="grey" stroke-width="2" d="M537.92,-359.88C559.01,-350.35 585.46,-338.41 607.87,-328.28"/>
<polygon fill="grey" stroke="grey" stroke-width="2" points="609.53,-331.37 617.21,-324.07 606.65,-324.99 609.53,-331.37"/>
</g>
<!-- 32&#45;&gt;46 -->
<g id="edge82" class="edge">
<title>32&#45;&gt;46</title>
<path fill="none" stroke="grey" stroke-width="2" d="M510.25,-359.87C524.99,-335.24 552.29,-289.64 569.51,-260.88"/>
<polygon fill="grey" stroke="grey" stroke-width="2" points="572.58,-262.57 574.71,-252.19 566.57,-258.97 572.58,-262.57"/>
</g>
<!-- 33 -->
<g id="node34" class="node">
<title>33</title>
<path fill="none" stroke="#56d863" stroke-width="2" stroke-dasharray="5,2" d="M1252.5,-540C1252.5,-540 1207.5,-540 1207.5,-540 1201.5,-540 1195.5,-534 1195.5,-528 1195.5,-528 1195.5,-516 1195.5,-516 1195.5,-510 1201.5,-504 1207.5,-504 1207.5,-504 1252.5,-504 1252.5,-504 1258.5,-504 1264.5,-510 1264.5,-516 1264.5,-516 1264.5,-528 1264.5,-528 1264.5,-534 1258.5,-540 1252.5,-540"/>
<text text-anchor="middle" x="1230" y="-519.5" font-family="sans" font-size="10.00">cp_dwi_ref</text>
</g>
<!-- 33&#45;&gt;2 -->
<g id="edge6" class="edge">
<title>33&#45;&gt;2</title>
<path fill="none" stroke="grey" stroke-width="2" d="M1195.26,-514.27C1140.27,-503.28 1038.3,-481.35 1028,-468 1013,-448.55 1027.96,-422.73 1043.86,-403.92"/>
<polygon fill="grey" stroke="grey" stroke-width="2" points="1046.59,-406.11 1050.64,-396.32 1041.37,-401.44 1046.59,-406.11"/>
</g>
<!-- 33&#45;&gt;3 -->
<g id="edge7" class="edge">
<title>33&#45;&gt;3</title>
<path fill="none" stroke="grey" stroke-width="2" d="M1195.36,-504.94C1174.47,-495.26 1147.6,-482.8 1124.95,-472.3"/>
<polygon fill="grey" stroke="grey" stroke-width="2" points="1126.4,-469.11 1115.85,-468.08 1123.45,-475.47 1126.4,-469.11"/>
</g>
<!-- 33&#45;&gt;4 -->
<g id="edge9" class="edge">
<title>33&#45;&gt;4</title>
<path fill="none" stroke="grey" stroke-width="2" d="M1195.45,-514.17C1138.87,-502.72 1031.34,-479.76 1018,-468 980.36,-434.83 981.87,-370.54 986.38,-334.04"/>
<polygon fill="grey" stroke="grey" stroke-width="2" points="989.85,-334.49 987.77,-324.1 982.92,-333.52 989.85,-334.49"/>
</g>
<!-- 33&#45;&gt;6 -->
<g id="edge14" class="edge">
<title>33&#45;&gt;6</title>
<path fill="none" stroke="grey" stroke-width="2" d="M1264.63,-516.9C1312.98,-510.42 1402.86,-495.63 1475,-468 1519.92,-450.8 1567.35,-422.01 1597.96,-401.84"/>
<polygon fill="grey" stroke="grey" stroke-width="2" points="1600.13,-404.6 1606.51,-396.14 1596.25,-398.78 1600.13,-404.6"/>
</g>
<!-- 33&#45;&gt;12 -->
<g id="edge21" class="edge">
<title>33&#45;&gt;12</title>
<path fill="none" stroke="grey" stroke-width="2" d="M1264.66,-515.97C1330.65,-506.38 1477.32,-485.08 1584.79,-469.47"/>
<polygon fill="grey" stroke="grey" stroke-width="2" points="1585.35,-472.93 1594.74,-468.03 1584.34,-466 1585.35,-472.93"/>
</g>
<!-- 33&#45;&gt;17 -->
<g id="edge31" class="edge">
<title>33&#45;&gt;17</title>
<path fill="none" stroke="grey" stroke-width="2" d="M1243.84,-503.7C1250.49,-495.39 1258.58,-485.28 1265.89,-476.14"/>
<polygon fill="grey" stroke="grey" stroke-width="2" points="1268.8,-478.1 1272.32,-468.1 1263.34,-473.73 1268.8,-478.1"/>
</g>
<!-- 33&#45;&gt;21 -->
<g id="edge40" class="edge">
<title>33&#45;&gt;21</title>
<path fill="none" stroke="grey" stroke-width="2" d="M1264.89,-517.41C1319.31,-511.02 1420.4,-495.66 1442,-468 1472.55,-428.87 1449.46,-367.73 1431.92,-333.14"/>
<polygon fill="grey" stroke="grey" stroke-width="2" points="1434.93,-331.34 1427.17,-324.13 1428.74,-334.61 1434.93,-331.34"/>
</g>
<!-- 34 -->
<g id="node35" class="node">
<title>34</title>
<path fill="none" stroke="#56c1d8" stroke-width="2" stroke-dasharray="5,2" d="M950,-756C950,-756 850,-756 850,-756 844,-756 838,-750 838,-744 838,-744 838,-732 838,-732 838,-726 844,-720 850,-720 850,-720 950,-720 950,-720 956,-720 962,-726 962,-732 962,-732 962,-744 962,-744 962,-750 956,-756 950,-756"/>
<text text-anchor="middle" x="900" y="-741" font-family="sans" font-size="10.00">moco_subj_bzeros_4d</text>
<text text-anchor="middle" x="900" y="-730" font-family="sans" font-size="10.00">subject: 001</text>
</g>
<!-- 34&#45;&gt;33 -->
<g id="edge55" class="edge">
<title>34&#45;&gt;33</title>
<path fill="none" stroke="grey" stroke-width="2" d="M962.12,-721.93C991.25,-713.32 1025.68,-700.83 1054,-684 1117.61,-646.2 1178.16,-582.74 1208.94,-547.85"/>
<polygon fill="grey" stroke="grey" stroke-width="2" points="1211.82,-549.87 1215.75,-540.03 1206.54,-545.27 1211.82,-549.87"/>
</g>
<!-- 44 -->
<g id="node45" class="node">
<title>44</title>
<path fill="none" stroke="#56d87b" stroke-width="2" stroke-dasharray="5,2" d="M874.5,-612C874.5,-612 787.5,-612 787.5,-612 781.5,-612 775.5,-606 775.5,-600 775.5,-600 775.5,-588 775.5,-588 775.5,-582 781.5,-576 787.5,-576 787.5,-576 874.5,-576 874.5,-576 880.5,-576 886.5,-582 886.5,-588 886.5,-588 886.5,-600 886.5,-600 886.5,-606 880.5,-612 874.5,-612"/>
<text text-anchor="middle" x="831" y="-591.5" font-family="sans" font-size="10.00">reslice_synthSR_b0</text>
</g>
<!-- 34&#45;&gt;44 -->
<g id="edge78" class="edge">
<title>34&#45;&gt;44</title>
<path fill="none" stroke="grey" stroke-width="2" d="M837.98,-732.46C804.92,-726.51 766.85,-713.23 746,-684 736.71,-670.97 738.24,-661.99 746,-648 753.13,-635.15 764.81,-625.01 777.27,-617.19"/>
<polygon fill="grey" stroke="grey" stroke-width="2" points="779.08,-620.19 785.97,-612.14 775.56,-614.13 779.08,-620.19"/>
</g>
<!-- 45 -->
<g id="node46" class="node">
<title>45</title>
<path fill="none" stroke="#56b1d8" stroke-width="2" stroke-dasharray="5,2" d="M1033,-684C1033,-684 767,-684 767,-684 761,-684 755,-678 755,-672 755,-672 755,-660 755,-660 755,-654 761,-648 767,-648 767,-648 1033,-648 1033,-648 1039,-648 1045,-654 1045,-660 1045,-660 1045,-672 1045,-672 1045,-678 1039,-684 1033,-684"/>
<text text-anchor="middle" x="900" y="-669" font-family="sans" font-size="10.00">run_synthSR</text>
<text text-anchor="middle" x="900" y="-658" font-family="sans" font-size="10.00">prefix: results/work/sub&#45;001/dwi/sub&#45;001_desc&#45;moco_b0</text>
</g>
<!-- 34&#45;&gt;45 -->
<g id="edge80" class="edge">
<title>34&#45;&gt;45</title>
<path fill="none" stroke="grey" stroke-width="2" d="M900,-719.7C900,-711.98 900,-702.71 900,-694.11"/>
<polygon fill="grey" stroke="grey" stroke-width="2" points="903.5,-694.1 900,-684.1 896.5,-694.1 903.5,-694.1"/>
</g>
<!-- 35 -->
<g id="node36" class="node">
<title>35</title>
<path fill="none" stroke="#59d856" stroke-width="2" stroke-dasharray="5,2" d="M1041.5,-833C1041.5,-833 758.5,-833 758.5,-833 752.5,-833 746.5,-827 746.5,-821 746.5,-821 746.5,-804 746.5,-804 746.5,-798 752.5,-792 758.5,-792 758.5,-792 1041.5,-792 1041.5,-792 1047.5,-792 1053.5,-798 1053.5,-804 1053.5,-804 1053.5,-821 1053.5,-821 1053.5,-827 1047.5,-833 1041.5,-833"/>
<text text-anchor="middle" x="900" y="-821" font-family="sans" font-size="10.00">get_shell_vols</text>
<text text-anchor="middle" x="900" y="-810" font-family="sans" font-size="10.00">dwi_prefix: results/work/sub&#45;001/dwi/sub&#45;001_desc&#45;degibbs</text>
<text text-anchor="middle" x="900" y="-799" font-family="sans" font-size="10.00">shell: 0</text>
</g>
<!-- 35&#45;&gt;34 -->
<g id="edge56" class="edge">
<title>35&#45;&gt;34</title>
<path fill="none" stroke="grey" stroke-width="2" d="M900,-791.69C900,-783.91 900,-774.84 900,-766.45"/>
<polygon fill="grey" stroke="grey" stroke-width="2" points="903.5,-766.32 900,-756.32 896.5,-766.32 903.5,-766.32"/>
</g>
<!-- 36 -->
<g id="node37" class="node">
<title>36</title>
<path fill="none" stroke="#d86656" stroke-width="2" stroke-dasharray="5,2" d="M1054.5,-907.5C1054.5,-907.5 749.5,-907.5 749.5,-907.5 743.5,-907.5 737.5,-901.5 737.5,-895.5 737.5,-895.5 737.5,-883.5 737.5,-883.5 737.5,-877.5 743.5,-871.5 749.5,-871.5 749.5,-871.5 1054.5,-871.5 1054.5,-871.5 1060.5,-871.5 1066.5,-877.5 1066.5,-883.5 1066.5,-883.5 1066.5,-895.5 1066.5,-895.5 1066.5,-901.5 1060.5,-907.5 1054.5,-907.5"/>
<text text-anchor="middle" x="902" y="-892.5" font-family="sans" font-size="10.00">get_shells_from_bvals</text>
<text text-anchor="middle" x="902" y="-881.5" font-family="sans" font-size="10.00">dwi_prefix: results/work/sub&#45;001/dwi/sub&#45;001_desc&#45;degibbs_dwi</text>
</g>
<!-- 36&#45;&gt;35 -->
<g id="edge57" class="edge">
<title>36&#45;&gt;35</title>
<path fill="none" stroke="grey" stroke-width="2" d="M901.55,-871.48C901.32,-863.1 901.05,-852.76 900.79,-843.13"/>
<polygon fill="grey" stroke="grey" stroke-width="2" points="904.29,-843 900.52,-833.1 897.29,-843.19 904.29,-843"/>
</g>
<!-- 37&#45;&gt;18 -->
<g id="edge33" class="edge">
<title>37&#45;&gt;18</title>
<path fill="none" stroke="grey" stroke-width="2" d="M760.64,-962.69C940.17,-961.24 1545.62,-953.17 1734,-910 1841.65,-885.33 1963,-923.95 1963,-813.5 1963,-813.5 1963,-813.5 1963,-377 1963,-276.04 1852.18,-311.55 1754,-288 1525.71,-233.25 1460.03,-280.51 1227,-252 1215.19,-250.55 1202.62,-248.62 1190.61,-246.58"/>
<polygon fill="grey" stroke="grey" stroke-width="2" points="1191.13,-243.11 1180.67,-244.84 1189.92,-250.01 1191.13,-243.11"/>
</g>
<!-- 37&#45;&gt;36 -->
<g id="edge59" class="edge">
<title>37&#45;&gt;36</title>
<path fill="none" stroke="grey" stroke-width="2" d="M755.5,-945.82C783,-935.44 818.22,-922.13 847.24,-911.18"/>
<polygon fill="grey" stroke="grey" stroke-width="2" points="848.71,-914.37 856.83,-907.56 846.23,-907.82 848.71,-914.37"/>
</g>
<!-- 37&#45;&gt;40 -->
<g id="edge68" class="edge">
<title>37&#45;&gt;40</title>
<path fill="none" stroke="grey" stroke-width="2" d="M708.56,-945.79C701.06,-856.38 666.55,-444.72 657.29,-334.31"/>
<polygon fill="grey" stroke="grey" stroke-width="2" points="660.75,-333.7 656.43,-324.03 653.78,-334.29 660.75,-333.7"/>
</g>
<!-- 37&#45;&gt;46 -->
<g id="edge84" class="edge">
<title>37&#45;&gt;46</title>
<path fill="none" stroke="grey" stroke-width="2" d="M659.4,-960.12C624.38,-955.18 580.07,-942.4 557,-910 518.99,-856.61 568.7,-381.86 581.93,-262.26"/>
<polygon fill="grey" stroke="grey" stroke-width="2" points="585.43,-262.44 583.06,-252.12 578.47,-261.67 585.43,-262.44"/>
</g>
<!-- 38&#45;&gt;40 -->
<g id="edge69" class="edge">
<title>38&#45;&gt;40</title>
<path fill="none" stroke="grey" stroke-width="2" d="M264.13,-361.98C267.12,-361.27 270.09,-360.6 273,-360 389.77,-335.74 528.98,-319.58 602.87,-312"/>
<polygon fill="grey" stroke="grey" stroke-width="2" points="603.26,-315.47 612.86,-310.98 602.55,-308.51 603.26,-315.47"/>
</g>
<!-- 38&#45;&gt;46 -->
<g id="edge85" class="edge">
<title>38&#45;&gt;46</title>
<path fill="none" stroke="grey" stroke-width="2" d="M254.55,-359.94C300.07,-341.79 374.45,-312.37 439,-288 472.89,-275.21 511.4,-261.25 540.37,-250.87"/>
<polygon fill="grey" stroke="grey" stroke-width="2" points="541.57,-254.16 549.8,-247.49 539.21,-247.57 541.57,-254.16"/>
</g>
<!-- 39&#45;&gt;35 -->
<g id="edge58" class="edge">
<title>39&#45;&gt;35</title>
<path fill="none" stroke="grey" stroke-width="2" d="M681.52,-872.87C721.11,-862.11 774.27,-847.67 818.24,-835.72"/>
<polygon fill="grey" stroke="grey" stroke-width="2" points="819.32,-839.05 828.05,-833.05 817.48,-832.3 819.32,-839.05"/>
</g>
<!-- 39&#45;&gt;40 -->
<g id="edge64" class="edge">
<title>39&#45;&gt;40</title>
<path fill="none" stroke="grey" stroke-width="2" d="M624.38,-871.46C624.96,-843.71 626,-787.02 626,-739 626,-739 626,-739 626,-449 626,-408.21 637.63,-362.15 646.16,-333.84"/>
<polygon fill="grey" stroke="grey" stroke-width="2" points="649.51,-334.84 649.13,-324.26 642.82,-332.77 649.51,-334.84"/>
</g>
<!-- 40&#45;&gt;18 -->
<g id="edge34" class="edge">
<title>40&#45;&gt;18</title>
<path fill="none" stroke="grey" stroke-width="2" d="M697.24,-298.79C782.18,-286.3 973.83,-258.11 1071.44,-243.76"/>
<polygon fill="grey" stroke="grey" stroke-width="2" points="1072.06,-247.21 1081.44,-242.29 1071.04,-240.28 1072.06,-247.21"/>
</g>
<!-- 40&#45;&gt;46 -->
<g id="edge86" class="edge">
<title>40&#45;&gt;46</title>
<path fill="none" stroke="grey" stroke-width="2" d="M637.7,-287.7C629.14,-279.14 618.66,-268.66 609.3,-259.3"/>
<polygon fill="grey" stroke="grey" stroke-width="2" points="611.65,-256.7 602.1,-252.1 606.7,-261.65 611.65,-256.7"/>
</g>
<!-- 41&#45;&gt;40 -->
<g id="edge63" class="edge">
<title>41&#45;&gt;40</title>
<path fill="none" stroke="grey" stroke-width="2" d="M791.72,-359.88C766.09,-349.96 733.69,-337.43 706.87,-327.06"/>
<polygon fill="grey" stroke="grey" stroke-width="2" points="707.85,-323.69 697.26,-323.35 705.33,-330.22 707.85,-323.69"/>
</g>
<!-- 42&#45;&gt;41 -->
<g id="edge70" class="edge">
<title>42&#45;&gt;41</title>
<path fill="none" stroke="grey" stroke-width="2" d="M813.42,-431.7C816.79,-423.81 820.87,-414.3 824.62,-405.55"/>
<polygon fill="grey" stroke="grey" stroke-width="2" points="827.95,-406.67 828.67,-396.1 821.51,-403.92 827.95,-406.67"/>
</g>
<!-- 43&#45;&gt;42 -->
<g id="edge74" class="edge">
<title>43&#45;&gt;42</title>
<path fill="none" stroke="grey" stroke-width="2" d="M930.64,-503.88C907.98,-494.26 879.53,-482.19 855.53,-472.01"/>
<polygon fill="grey" stroke="grey" stroke-width="2" points="856.81,-468.75 846.23,-468.07 854.07,-475.2 856.81,-468.75"/>
</g>
<!-- 44&#45;&gt;42 -->
<g id="edge75" class="edge">
<title>44&#45;&gt;42</title>
<path fill="none" stroke="grey" stroke-width="2" d="M775.5,-578.85C755.73,-570.85 735.53,-558.58 724,-540 715.56,-526.41 716.35,-518.05 724,-504 730.91,-491.3 742.32,-481.18 754.46,-473.33"/>
<polygon fill="grey" stroke="grey" stroke-width="2" points="756.59,-476.14 763.38,-468.01 753,-470.13 756.59,-476.14"/>
</g>
<!-- 44&#45;&gt;43 -->
<g id="edge77" class="edge">
<title>44&#45;&gt;43</title>
<path fill="none" stroke="grey" stroke-width="2" d="M865.25,-575.88C884.06,-566.47 907.58,-554.71 927.67,-544.67"/>
<polygon fill="grey" stroke="grey" stroke-width="2" points="929.24,-547.79 936.62,-540.19 926.11,-541.53 929.24,-547.79"/>
</g>
<!-- 45&#45;&gt;44 -->
<g id="edge79" class="edge">
<title>45&#45;&gt;44</title>
<path fill="none" stroke="grey" stroke-width="2" d="M882.94,-647.7C874.5,-639.14 864.18,-628.66 854.96,-619.3"/>
<polygon fill="grey" stroke="grey" stroke-width="2" points="857.37,-616.77 847.86,-612.1 852.39,-621.68 857.37,-616.77"/>
</g>
<!-- 46&#45;&gt;0 -->
<g id="edge4" class="edge">
<title>46&#45;&gt;0</title>
<path fill="none" stroke="grey" stroke-width="2" d="M620.26,-218.46C714.56,-179.58 971.84,-73.5 1067.52,-34.04"/>
<polygon fill="grey" stroke="grey" stroke-width="2" points="1068.88,-37.27 1076.79,-30.22 1066.21,-30.8 1068.88,-37.27"/>
</g>
</g>
</svg>
