<?xml version="1.0" encoding="UTF-8" standalone="no"?>
<!DOCTYPE svg PUBLIC "-//W3C//DTD SVG 1.1//EN"
 "http://www.w3.org/Graphics/SVG/1.1/DTD/svg11.dtd">
<!-- Generated by graphviz version 2.43.0 (0)
 -->
<!-- Title: snakemake_dag Pages: 1 -->
<svg width="1867pt" height="1222pt"
 viewBox="0.00 0.00 1866.50 1222.00" xmlns="http://www.w3.org/2000/svg" xmlns:xlink="http://www.w3.org/1999/xlink">
<g id="graph0" class="graph" transform="scale(1 1) rotate(0) translate(4 1218)">
<title>snakemake_dag</title>
<polygon fill="white" stroke="transparent" points="-4,4 -4,-1218 1862.5,-1218 1862.5,4 -4,4"/>
<!-- 0 -->
<g id="node1" class="node">
<title>0</title>
<path fill="none" stroke="#568ad8" stroke-width="2" d="M804.5,-36C804.5,-36 774.5,-36 774.5,-36 768.5,-36 762.5,-30 762.5,-24 762.5,-24 762.5,-12 762.5,-12 762.5,-6 768.5,0 774.5,0 774.5,0 804.5,0 804.5,0 810.5,0 816.5,-6 816.5,-12 816.5,-12 816.5,-24 816.5,-24 816.5,-30 810.5,-36 804.5,-36"/>
<text text-anchor="middle" x="789.5" y="-15.5" font-family="sans" font-size="10.00">all</text>
</g>
<!-- 1 -->
<g id="node2" class="node">
<title>1</title>
<path fill="none" stroke="#56b1d8" stroke-width="2" stroke-dasharray="5,2" d="M1169.5,-756C1169.5,-756 1047.5,-756 1047.5,-756 1041.5,-756 1035.5,-750 1035.5,-744 1035.5,-744 1035.5,-732 1035.5,-732 1035.5,-726 1041.5,-720 1047.5,-720 1047.5,-720 1169.5,-720 1169.5,-720 1175.5,-720 1181.5,-726 1181.5,-732 1181.5,-732 1181.5,-744 1181.5,-744 1181.5,-750 1175.5,-756 1169.5,-756"/>
<text text-anchor="middle" x="1108.5" y="-741" font-family="sans" font-size="10.00">check_subj_dwi_metadata</text>
<text text-anchor="middle" x="1108.5" y="-730" font-family="sans" font-size="10.00">subject: 001</text>
</g>
<!-- 43 -->
<g id="node44" class="node">
<title>43</title>
<path fill="none" stroke="#78d856" stroke-width="2" stroke-dasharray="5,2" d="M1344.5,-684C1344.5,-684 1272.5,-684 1272.5,-684 1266.5,-684 1260.5,-678 1260.5,-672 1260.5,-672 1260.5,-660 1260.5,-660 1260.5,-654 1266.5,-648 1272.5,-648 1272.5,-648 1344.5,-648 1344.5,-648 1350.5,-648 1356.5,-654 1356.5,-660 1356.5,-660 1356.5,-672 1356.5,-672 1356.5,-678 1350.5,-684 1344.5,-684"/>
<text text-anchor="middle" x="1308.5" y="-663.5" font-family="sans" font-size="10.00">apply_topup_jac</text>
</g>
<!-- 1&#45;&gt;43 -->
<g id="edge73" class="edge">
<title>1&#45;&gt;43</title>
<path fill="none" stroke="grey" stroke-width="2" d="M1157.17,-719.97C1185.32,-710.11 1220.92,-697.65 1250.52,-687.29"/>
<polygon fill="grey" stroke="grey" stroke-width="2" points="1252.02,-690.48 1260.31,-683.87 1249.71,-683.87 1252.02,-690.48"/>
</g>
<!-- 50 -->
<g id="node51" class="node">
<title>50</title>
<path fill="none" stroke="#78d856" stroke-width="2" stroke-dasharray="5,2" d="M1043.5,-684C1043.5,-684 971.5,-684 971.5,-684 965.5,-684 959.5,-678 959.5,-672 959.5,-672 959.5,-660 959.5,-660 959.5,-654 965.5,-648 971.5,-648 971.5,-648 1043.5,-648 1043.5,-648 1049.5,-648 1055.5,-654 1055.5,-660 1055.5,-660 1055.5,-672 1055.5,-672 1055.5,-678 1049.5,-684 1043.5,-684"/>
<text text-anchor="middle" x="1007.5" y="-663.5" font-family="sans" font-size="10.00">apply_topup_jac</text>
</g>
<!-- 1&#45;&gt;50 -->
<g id="edge88" class="edge">
<title>1&#45;&gt;50</title>
<path fill="none" stroke="grey" stroke-width="2" d="M1083.79,-719.88C1070.83,-710.89 1054.77,-699.76 1040.73,-690.03"/>
<polygon fill="grey" stroke="grey" stroke-width="2" points="1042.52,-687.01 1032.3,-684.19 1038.53,-692.76 1042.52,-687.01"/>
</g>
<!-- 2 -->
<g id="node3" class="node">
<title>2</title>
<path fill="none" stroke="#d8bc56" stroke-width="2" stroke-dasharray="5,2" d="M1306,-396C1306,-396 1191,-396 1191,-396 1185,-396 1179,-390 1179,-384 1179,-384 1179,-372 1179,-372 1179,-366 1185,-360 1191,-360 1191,-360 1306,-360 1306,-360 1312,-360 1318,-366 1318,-372 1318,-372 1318,-384 1318,-384 1318,-390 1312,-396 1306,-396"/>
<text text-anchor="middle" x="1248.5" y="-375.5" font-family="sans" font-size="10.00">synthstrip_b0_fix_header</text>
</g>
<!-- 4 -->
<g id="node5" class="node">
<title>4</title>
<path fill="none" stroke="#d8ac56" stroke-width="2" stroke-dasharray="5,2" d="M778.5,-324C778.5,-324 700.5,-324 700.5,-324 694.5,-324 688.5,-318 688.5,-312 688.5,-312 688.5,-300 688.5,-300 688.5,-294 694.5,-288 700.5,-288 700.5,-288 778.5,-288 778.5,-288 784.5,-288 790.5,-294 790.5,-300 790.5,-300 790.5,-312 790.5,-312 790.5,-318 784.5,-324 778.5,-324"/>
<text text-anchor="middle" x="739.5" y="-303.5" font-family="sans" font-size="10.00">qc_b0_brainmask</text>
</g>
<!-- 2&#45;&gt;4 -->
<g id="edge8" class="edge">
<title>2&#45;&gt;4</title>
<path fill="none" stroke="grey" stroke-width="2" d="M1178.78,-361.63C1175.65,-361.06 1172.54,-360.51 1169.5,-360 1037.05,-337.85 1002.75,-340.71 869.5,-324 847.08,-321.19 822.5,-318 800.8,-315.15"/>
<polygon fill="grey" stroke="grey" stroke-width="2" points="801.1,-311.66 790.73,-313.83 800.19,-318.6 801.1,-311.66"/>
</g>
<!-- 18 -->
<g id="node19" class="node">
<title>18</title>
<path fill="none" stroke="#d8cb56" stroke-width="2" d="M1286,-252C1286,-252 1211,-252 1211,-252 1205,-252 1199,-246 1199,-240 1199,-240 1199,-228 1199,-228 1199,-222 1205,-216 1211,-216 1211,-216 1286,-216 1286,-216 1292,-216 1298,-222 1298,-228 1298,-228 1298,-240 1298,-240 1298,-246 1292,-252 1286,-252"/>
<text text-anchor="middle" x="1248.5" y="-231.5" font-family="sans" font-size="10.00">cp_eddy_outputs</text>
</g>
<!-- 2&#45;&gt;18 -->
<g id="edge32" class="edge">
<title>2&#45;&gt;18</title>
<path fill="none" stroke="grey" stroke-width="2" d="M1248.5,-359.87C1248.5,-335.67 1248.5,-291.21 1248.5,-262.39"/>
<polygon fill="grey" stroke="grey" stroke-width="2" points="1252,-262.19 1248.5,-252.19 1245,-262.19 1252,-262.19"/>
</g>
<!-- 22 -->
<g id="node23" class="node">
<title>22</title>
<path fill="none" stroke="#56a9d8" stroke-width="2" stroke-dasharray="5,2" d="M919.5,-180C919.5,-180 785.5,-180 785.5,-180 779.5,-180 773.5,-174 773.5,-168 773.5,-168 773.5,-156 773.5,-156 773.5,-150 779.5,-144 785.5,-144 785.5,-144 919.5,-144 919.5,-144 925.5,-144 931.5,-150 931.5,-156 931.5,-156 931.5,-168 931.5,-168 931.5,-174 925.5,-180 919.5,-180"/>
<text text-anchor="middle" x="852.5" y="-159.5" font-family="sans" font-size="10.00">resample_brainmask_to_t1w</text>
</g>
<!-- 2&#45;&gt;22 -->
<g id="edge42" class="edge">
<title>2&#45;&gt;22</title>
<path fill="none" stroke="grey" stroke-width="2" d="M1240.58,-359.83C1224.13,-326.27 1182.88,-252.07 1124.5,-216 1124,-215.69 1020.83,-195.64 941.71,-180.29"/>
<polygon fill="grey" stroke="grey" stroke-width="2" points="942.19,-176.82 931.7,-178.35 940.85,-183.69 942.19,-176.82"/>
</g>
<!-- 54 -->
<g id="node55" class="node">
<title>54</title>
<path fill="none" stroke="#56d0d8" stroke-width="2" stroke-dasharray="5,2" d="M1452.5,-324C1452.5,-324 1392.5,-324 1392.5,-324 1386.5,-324 1380.5,-318 1380.5,-312 1380.5,-312 1380.5,-300 1380.5,-300 1380.5,-294 1386.5,-288 1392.5,-288 1392.5,-288 1452.5,-288 1452.5,-288 1458.5,-288 1464.5,-294 1464.5,-300 1464.5,-300 1464.5,-312 1464.5,-312 1464.5,-318 1458.5,-324 1452.5,-324"/>
<text text-anchor="middle" x="1422.5" y="-303.5" font-family="sans" font-size="10.00">run_eddy_cpu</text>
</g>
<!-- 2&#45;&gt;54 -->
<g id="edge99" class="edge">
<title>2&#45;&gt;54</title>
<path fill="none" stroke="grey" stroke-width="2" d="M1291.07,-359.88C1315.15,-350.19 1345.45,-338 1370.89,-327.76"/>
<polygon fill="grey" stroke="grey" stroke-width="2" points="1372.4,-330.93 1380.37,-323.95 1369.79,-324.43 1372.4,-330.93"/>
</g>
<!-- 55 -->
<g id="node56" class="node">
<title>55</title>
<path fill="none" stroke="#d85e56" stroke-width="2" stroke-dasharray="5,2" d="M1600.5,-252C1600.5,-252 1554.5,-252 1554.5,-252 1548.5,-252 1542.5,-246 1542.5,-240 1542.5,-240 1542.5,-228 1542.5,-228 1542.5,-222 1548.5,-216 1554.5,-216 1554.5,-216 1600.5,-216 1600.5,-216 1606.5,-216 1612.5,-222 1612.5,-228 1612.5,-228 1612.5,-240 1612.5,-240 1612.5,-246 1606.5,-252 1600.5,-252"/>
<text text-anchor="middle" x="1577.5" y="-231.5" font-family="sans" font-size="10.00">eddy_quad</text>
</g>
<!-- 2&#45;&gt;55 -->
<g id="edge104" class="edge">
<title>2&#45;&gt;55</title>
<path fill="none" stroke="grey" stroke-width="2" d="M1267.49,-359.71C1290.49,-339.66 1331.18,-306.94 1371.5,-288 1423.84,-263.42 1489.22,-249.08 1532.11,-241.65"/>
<polygon fill="grey" stroke="grey" stroke-width="2" points="1532.96,-245.06 1542.24,-239.95 1531.8,-238.15 1532.96,-245.06"/>
</g>
<!-- 3 -->
<g id="node4" class="node">
<title>3</title>
<path fill="none" stroke="#56d873" stroke-width="2" stroke-dasharray="5,2" d="M1306,-468C1306,-468 1247,-468 1247,-468 1241,-468 1235,-462 1235,-456 1235,-456 1235,-444 1235,-444 1235,-438 1241,-432 1247,-432 1247,-432 1306,-432 1306,-432 1312,-432 1318,-438 1318,-444 1318,-444 1318,-456 1318,-456 1318,-462 1312,-468 1306,-468"/>
<text text-anchor="middle" x="1276.5" y="-453" font-family="sans" font-size="10.00">synthstrip_b0</text>
<text text-anchor="middle" x="1276.5" y="-442" font-family="sans" font-size="10.00">desc: dwiref</text>
</g>
<!-- 3&#45;&gt;2 -->
<g id="edge5" class="edge">
<title>3&#45;&gt;2</title>
<path fill="none" stroke="grey" stroke-width="2" d="M1269.58,-431.7C1266.43,-423.81 1262.62,-414.3 1259.12,-405.55"/>
<polygon fill="grey" stroke="grey" stroke-width="2" points="1262.31,-404.09 1255.34,-396.1 1255.81,-406.69 1262.31,-404.09"/>
</g>
<!-- 4&#45;&gt;0 -->
<g id="edge1" class="edge">
<title>4&#45;&gt;0</title>
<path fill="none" stroke="grey" stroke-width="2" d="M741.95,-287.57C746.18,-257.98 755.25,-196.08 764.5,-144 770.49,-110.25 778.38,-71.59 783.68,-46.31"/>
<polygon fill="grey" stroke="grey" stroke-width="2" points="787.15,-46.85 785.78,-36.35 780.3,-45.41 787.15,-46.85"/>
</g>
<!-- 5 -->
<g id="node6" class="node">
<title>5</title>
<path fill="none" stroke="#56d8a2" stroke-width="2" stroke-dasharray="5,2" d="M524.5,-324C524.5,-324 462.5,-324 462.5,-324 456.5,-324 450.5,-318 450.5,-312 450.5,-312 450.5,-300 450.5,-300 450.5,-294 456.5,-288 462.5,-288 462.5,-288 524.5,-288 524.5,-288 530.5,-288 536.5,-294 536.5,-300 536.5,-300 536.5,-312 536.5,-312 536.5,-318 530.5,-324 524.5,-324"/>
<text text-anchor="middle" x="493.5" y="-303.5" font-family="sans" font-size="10.00">qc_reg_dwi_t1</text>
</g>
<!-- 5&#45;&gt;0 -->
<g id="edge2" class="edge">
<title>5&#45;&gt;0</title>
<path fill="none" stroke="grey" stroke-width="2" d="M511.13,-287.97C561.39,-239.4 705.57,-100.1 764.22,-43.42"/>
<polygon fill="grey" stroke="grey" stroke-width="2" points="766.83,-45.77 771.59,-36.31 761.96,-40.74 766.83,-45.77"/>
</g>
<!-- 6 -->
<g id="node7" class="node">
<title>6</title>
<path fill="none" stroke="#565bd8" stroke-width="2" stroke-dasharray="5,2" d="M836,-396C836,-396 775,-396 775,-396 769,-396 763,-390 763,-384 763,-384 763,-372 763,-372 763,-366 769,-360 775,-360 775,-360 836,-360 836,-360 842,-360 848,-366 848,-372 848,-372 848,-384 848,-384 848,-390 842,-396 836,-396"/>
<text text-anchor="middle" x="805.5" y="-375.5" font-family="sans" font-size="10.00">reg_dwi_to_t1</text>
</g>
<!-- 6&#45;&gt;5 -->
<g id="edge10" class="edge">
<title>6&#45;&gt;5</title>
<path fill="none" stroke="grey" stroke-width="2" d="M762.82,-369.85C713.05,-361.18 628.17,-345.32 546.46,-324.1"/>
<polygon fill="grey" stroke="grey" stroke-width="2" points="547.08,-320.64 536.52,-321.48 545.3,-327.41 547.08,-320.64"/>
</g>
<!-- 16 -->
<g id="node17" class="node">
<title>16</title>
<path fill="none" stroke="#56a2d8" stroke-width="2" stroke-dasharray="5,2" d="M976.5,-324C976.5,-324 890.5,-324 890.5,-324 884.5,-324 878.5,-318 878.5,-312 878.5,-312 878.5,-300 878.5,-300 878.5,-294 884.5,-288 890.5,-288 890.5,-288 976.5,-288 976.5,-288 982.5,-288 988.5,-294 988.5,-300 988.5,-300 988.5,-312 988.5,-312 988.5,-318 982.5,-324 976.5,-324"/>
<text text-anchor="middle" x="933.5" y="-303.5" font-family="sans" font-size="10.00">create_cropped_ref</text>
</g>
<!-- 6&#45;&gt;16 -->
<g id="edge30" class="edge">
<title>6&#45;&gt;16</title>
<path fill="none" stroke="grey" stroke-width="2" d="M836.81,-359.88C853.7,-350.64 874.75,-339.13 892.88,-329.21"/>
<polygon fill="grey" stroke="grey" stroke-width="2" points="894.97,-332.06 902.07,-324.19 891.61,-325.92 894.97,-332.06"/>
</g>
<!-- 19 -->
<g id="node20" class="node">
<title>19</title>
<path fill="none" stroke="#569ad8" stroke-width="2" stroke-dasharray="5,2" d="M899,-252C899,-252 806,-252 806,-252 800,-252 794,-246 794,-240 794,-240 794,-228 794,-228 794,-222 800,-216 806,-216 806,-216 899,-216 899,-216 905,-216 911,-222 911,-228 911,-228 911,-240 911,-240 911,-246 905,-252 899,-252"/>
<text text-anchor="middle" x="852.5" y="-231.5" font-family="sans" font-size="10.00">convert_xfm_ras2itk</text>
</g>
<!-- 6&#45;&gt;19 -->
<g id="edge35" class="edge">
<title>6&#45;&gt;19</title>
<path fill="none" stroke="grey" stroke-width="2" d="M811.17,-359.87C819.21,-335.56 834.02,-290.82 843.56,-262.01"/>
<polygon fill="grey" stroke="grey" stroke-width="2" points="846.99,-262.78 846.81,-252.19 840.35,-260.58 846.99,-262.78"/>
</g>
<!-- 21 -->
<g id="node22" class="node">
<title>21</title>
<path fill="none" stroke="#d8c356" stroke-width="2" stroke-dasharray="5,2" d="M658.5,-324C658.5,-324 566.5,-324 566.5,-324 560.5,-324 554.5,-318 554.5,-312 554.5,-312 554.5,-300 554.5,-300 554.5,-294 560.5,-288 566.5,-288 566.5,-288 658.5,-288 658.5,-288 664.5,-288 670.5,-294 670.5,-300 670.5,-300 670.5,-312 670.5,-312 670.5,-318 664.5,-324 658.5,-324"/>
<text text-anchor="middle" x="612.5" y="-303.5" font-family="sans" font-size="10.00">convert_xfm_ras2fsl</text>
</g>
<!-- 6&#45;&gt;21 -->
<g id="edge39" class="edge">
<title>6&#45;&gt;21</title>
<path fill="none" stroke="grey" stroke-width="2" d="M762.67,-361.46C735.11,-351.47 698.99,-338.37 669.08,-327.52"/>
<polygon fill="grey" stroke="grey" stroke-width="2" points="670.2,-324.21 659.61,-324.09 667.82,-330.79 670.2,-324.21"/>
</g>
<!-- 7 -->
<g id="node8" class="node">
<title>7</title>
<path fill="none" stroke="#c6d856" stroke-width="2" stroke-dasharray="5,2" d="M778,-468C778,-468 467,-468 467,-468 461,-468 455,-462 455,-456 455,-456 455,-444 455,-444 455,-438 461,-432 467,-432 467,-432 778,-432 778,-432 784,-432 790,-438 790,-444 790,-444 790,-456 790,-456 790,-462 784,-468 778,-468"/>
<text text-anchor="middle" x="622.5" y="-453" font-family="sans" font-size="10.00">run_synthSR</text>
<text text-anchor="middle" x="622.5" y="-442" font-family="sans" font-size="10.00">prefix: results/snakedwi/sub&#45;001/anat/sub&#45;001_desc&#45;preproc_T1w</text>
</g>
<!-- 7&#45;&gt;6 -->
<g id="edge12" class="edge">
<title>7&#45;&gt;6</title>
<path fill="none" stroke="grey" stroke-width="2" d="M667.27,-431.88C693.3,-421.92 726.22,-409.32 753.41,-398.92"/>
<polygon fill="grey" stroke="grey" stroke-width="2" points="754.68,-402.19 762.77,-395.35 752.18,-395.65 754.68,-402.19"/>
</g>
<!-- 8 -->
<g id="node9" class="node">
<title>8</title>
<path fill="none" stroke="#bed856" stroke-width="2" stroke-dasharray="5,2" d="M387,-540C387,-540 314,-540 314,-540 308,-540 302,-534 302,-528 302,-528 302,-516 302,-516 302,-510 308,-504 314,-504 314,-504 387,-504 387,-504 393,-504 399,-510 399,-516 399,-516 399,-528 399,-528 399,-534 393,-540 387,-540"/>
<text text-anchor="middle" x="350.5" y="-519.5" font-family="sans" font-size="10.00">n4_t1_withmask</text>
</g>
<!-- 8&#45;&gt;5 -->
<g id="edge11" class="edge">
<title>8&#45;&gt;5</title>
<path fill="none" stroke="grey" stroke-width="2" d="M342.31,-503.8C328.55,-472.09 305.17,-403.65 336.5,-360 359.86,-327.46 404.26,-314.64 439.9,-309.71"/>
<polygon fill="grey" stroke="grey" stroke-width="2" points="440.66,-313.14 450.17,-308.47 439.82,-306.19 440.66,-313.14"/>
</g>
<!-- 8&#45;&gt;7 -->
<g id="edge15" class="edge">
<title>8&#45;&gt;7</title>
<path fill="none" stroke="grey" stroke-width="2" d="M399.13,-508.49C440.07,-497.95 499.34,-482.7 546.53,-470.55"/>
<polygon fill="grey" stroke="grey" stroke-width="2" points="547.6,-473.89 556.41,-468.01 545.85,-467.11 547.6,-473.89"/>
</g>
<!-- 8&#45;&gt;21 -->
<g id="edge38" class="edge">
<title>8&#45;&gt;21</title>
<path fill="none" stroke="grey" stroke-width="2" d="M347.35,-503.76C342.45,-471.05 337.1,-399.7 374.5,-360 425.58,-305.79 466.37,-338.59 544.23,-324.03"/>
<polygon fill="grey" stroke="grey" stroke-width="2" points="545.36,-327.37 554.43,-321.89 543.93,-320.52 545.36,-327.37"/>
</g>
<!-- 9 -->
<g id="node10" class="node">
<title>9</title>
<path fill="none" stroke="#56d86b" stroke-width="2" stroke-dasharray="5,2" d="M401.5,-756C401.5,-756 349.5,-756 349.5,-756 343.5,-756 337.5,-750 337.5,-744 337.5,-744 337.5,-732 337.5,-732 337.5,-726 343.5,-720 349.5,-720 349.5,-720 401.5,-720 401.5,-720 407.5,-720 413.5,-726 413.5,-732 413.5,-732 413.5,-744 413.5,-744 413.5,-750 407.5,-756 401.5,-756"/>
<text text-anchor="middle" x="375.5" y="-741" font-family="sans" font-size="10.00">import_t1</text>
<text text-anchor="middle" x="375.5" y="-730" font-family="sans" font-size="10.00">subject: 001</text>
</g>
<!-- 9&#45;&gt;8 -->
<g id="edge16" class="edge">
<title>9&#45;&gt;8</title>
<path fill="none" stroke="grey" stroke-width="2" d="M353.35,-719.87C343.09,-710.52 331.98,-698 326.5,-684 309,-639.3 316.37,-622.92 326.5,-576 328.46,-566.92 332.11,-557.52 335.99,-549.2"/>
<polygon fill="grey" stroke="grey" stroke-width="2" points="339.23,-550.53 340.55,-540.02 332.96,-547.42 339.23,-550.53"/>
</g>
<!-- 10 -->
<g id="node11" class="node">
<title>10</title>
<path fill="none" stroke="#80d856" stroke-width="2" stroke-dasharray="5,2" d="M439.5,-612C439.5,-612 347.5,-612 347.5,-612 341.5,-612 335.5,-606 335.5,-600 335.5,-600 335.5,-588 335.5,-588 335.5,-582 341.5,-576 347.5,-576 347.5,-576 439.5,-576 439.5,-576 445.5,-576 451.5,-582 451.5,-588 451.5,-588 451.5,-600 451.5,-600 451.5,-606 445.5,-612 439.5,-612"/>
<text text-anchor="middle" x="393.5" y="-591.5" font-family="sans" font-size="10.00">fixheader_synthstrip</text>
</g>
<!-- 9&#45;&gt;10 -->
<g id="edge18" class="edge">
<title>9&#45;&gt;10</title>
<path fill="none" stroke="grey" stroke-width="2" d="M397.65,-719.87C407.91,-710.52 419.02,-698 424.5,-684 432.73,-662.98 423.09,-638.77 412.44,-620.91"/>
<polygon fill="grey" stroke="grey" stroke-width="2" points="415.21,-618.74 406.88,-612.2 409.31,-622.51 415.21,-618.74"/>
</g>
<!-- 11 -->
<g id="node12" class="node">
<title>11</title>
<path fill="none" stroke="#56d87b" stroke-width="2" stroke-dasharray="5,2" d="M403.5,-684C403.5,-684 347.5,-684 347.5,-684 341.5,-684 335.5,-678 335.5,-672 335.5,-672 335.5,-660 335.5,-660 335.5,-654 341.5,-648 347.5,-648 347.5,-648 403.5,-648 403.5,-648 409.5,-648 415.5,-654 415.5,-660 415.5,-660 415.5,-672 415.5,-672 415.5,-678 409.5,-684 403.5,-684"/>
<text text-anchor="middle" x="375.5" y="-663.5" font-family="sans" font-size="10.00">synthstrip_t1</text>
</g>
<!-- 9&#45;&gt;11 -->
<g id="edge20" class="edge">
<title>9&#45;&gt;11</title>
<path fill="none" stroke="grey" stroke-width="2" d="M375.5,-719.7C375.5,-711.98 375.5,-702.71 375.5,-694.11"/>
<polygon fill="grey" stroke="grey" stroke-width="2" points="379,-694.1 375.5,-684.1 372,-694.1 379,-694.1"/>
</g>
<!-- 10&#45;&gt;8 -->
<g id="edge17" class="edge">
<title>10&#45;&gt;8</title>
<path fill="none" stroke="grey" stroke-width="2" d="M382.87,-575.7C377.87,-567.56 371.81,-557.69 366.29,-548.7"/>
<polygon fill="grey" stroke="grey" stroke-width="2" points="369.22,-546.79 361.01,-540.1 363.26,-550.46 369.22,-546.79"/>
</g>
<!-- 11&#45;&gt;10 -->
<g id="edge19" class="edge">
<title>11&#45;&gt;10</title>
<path fill="none" stroke="grey" stroke-width="2" d="M379.95,-647.7C381.95,-639.9 384.37,-630.51 386.6,-621.83"/>
<polygon fill="grey" stroke="grey" stroke-width="2" points="390,-622.66 389.1,-612.1 383.22,-620.92 390,-622.66"/>
</g>
<!-- 12 -->
<g id="node13" class="node">
<title>12</title>
<path fill="none" stroke="#c6d856" stroke-width="2" stroke-dasharray="5,2" d="M1128.5,-468C1128.5,-468 858.5,-468 858.5,-468 852.5,-468 846.5,-462 846.5,-456 846.5,-456 846.5,-444 846.5,-444 846.5,-438 852.5,-432 858.5,-432 858.5,-432 1128.5,-432 1128.5,-432 1134.5,-432 1140.5,-438 1140.5,-444 1140.5,-444 1140.5,-456 1140.5,-456 1140.5,-462 1134.5,-468 1128.5,-468"/>
<text text-anchor="middle" x="993.5" y="-453" font-family="sans" font-size="10.00">run_synthSR</text>
<text text-anchor="middle" x="993.5" y="-442" font-family="sans" font-size="10.00">prefix: results/work/sub&#45;001/dwi/sub&#45;001_desc&#45;dwiref_b0</text>
</g>
<!-- 12&#45;&gt;6 -->
<g id="edge13" class="edge">
<title>12&#45;&gt;6</title>
<path fill="none" stroke="grey" stroke-width="2" d="M947.51,-431.88C920.38,-421.77 885.96,-408.96 857.8,-398.47"/>
<polygon fill="grey" stroke="grey" stroke-width="2" points="858.71,-395.08 848.12,-394.87 856.27,-401.64 858.71,-395.08"/>
</g>
<!-- 13 -->
<g id="node14" class="node">
<title>13</title>
<path fill="none" stroke="#567bd8" stroke-width="2" d="M978,-108C978,-108 883,-108 883,-108 877,-108 871,-102 871,-96 871,-96 871,-84 871,-84 871,-78 877,-72 883,-72 883,-72 978,-72 978,-72 984,-72 990,-78 990,-84 990,-84 990,-96 990,-96 990,-102 984,-108 978,-108"/>
<text text-anchor="middle" x="930.5" y="-87.5" font-family="sans" font-size="10.00">dtifit_resampled_t1w</text>
</g>
<!-- 13&#45;&gt;0 -->
<g id="edge3" class="edge">
<title>13&#45;&gt;0</title>
<path fill="none" stroke="grey" stroke-width="2" d="M896.01,-71.88C874.7,-61.3 847.4,-47.74 825.77,-37.01"/>
<polygon fill="grey" stroke="grey" stroke-width="2" points="827.09,-33.76 816.58,-32.44 823.98,-40.03 827.09,-33.76"/>
</g>
<!-- 14 -->
<g id="node15" class="node">
<title>14</title>
<path fill="none" stroke="#56d8d8" stroke-width="2" d="M1197,-180C1197,-180 1098,-180 1098,-180 1092,-180 1086,-174 1086,-168 1086,-168 1086,-156 1086,-156 1086,-150 1092,-144 1098,-144 1098,-144 1197,-144 1197,-144 1203,-144 1209,-150 1209,-156 1209,-156 1209,-168 1209,-168 1209,-174 1203,-180 1197,-180"/>
<text text-anchor="middle" x="1147.5" y="-159.5" font-family="sans" font-size="10.00">resample_dwi_to_t1w</text>
</g>
<!-- 14&#45;&gt;13 -->
<g id="edge22" class="edge">
<title>14&#45;&gt;13</title>
<path fill="none" stroke="grey" stroke-width="2" d="M1094.69,-143.97C1064.11,-134.1 1025.43,-121.62 993.29,-111.25"/>
<polygon fill="grey" stroke="grey" stroke-width="2" points="994.14,-107.85 983.54,-108.11 991.99,-114.51 994.14,-107.85"/>
</g>
<!-- 15 -->
<g id="node16" class="node">
<title>15</title>
<path fill="none" stroke="#56d87b" stroke-width="2" stroke-dasharray="5,2" d="M1104,-252C1104,-252 941,-252 941,-252 935,-252 929,-246 929,-240 929,-240 929,-228 929,-228 929,-222 935,-216 941,-216 941,-216 1104,-216 1104,-216 1110,-216 1116,-222 1116,-228 1116,-228 1116,-240 1116,-240 1116,-246 1110,-252 1104,-252"/>
<text text-anchor="middle" x="1022.5" y="-231.5" font-family="sans" font-size="10.00">create_cropped_ref_dwi_resolution</text>
</g>
<!-- 15&#45;&gt;14 -->
<g id="edge25" class="edge">
<title>15&#45;&gt;14</title>
<path fill="none" stroke="grey" stroke-width="2" d="M1053.08,-215.88C1069.57,-206.64 1090.12,-195.13 1107.84,-185.21"/>
<polygon fill="grey" stroke="grey" stroke-width="2" points="1109.79,-188.13 1116.8,-180.19 1106.37,-182.02 1109.79,-188.13"/>
</g>
<!-- 15&#45;&gt;22 -->
<g id="edge41" class="edge">
<title>15&#45;&gt;22</title>
<path fill="none" stroke="grey" stroke-width="2" d="M980.91,-215.88C957.47,-206.22 928,-194.09 903.2,-183.88"/>
<polygon fill="grey" stroke="grey" stroke-width="2" points="904.53,-180.64 893.95,-180.07 901.87,-187.11 904.53,-180.64"/>
</g>
<!-- 16&#45;&gt;15 -->
<g id="edge28" class="edge">
<title>16&#45;&gt;15</title>
<path fill="none" stroke="grey" stroke-width="2" d="M955.5,-287.7C966.71,-278.88 980.5,-268.03 992.65,-258.47"/>
<polygon fill="grey" stroke="grey" stroke-width="2" points="995.06,-261.04 1000.75,-252.1 990.73,-255.54 995.06,-261.04"/>
</g>
<!-- 17 -->
<g id="node18" class="node">
<title>17</title>
<path fill="none" stroke="#56d86b" stroke-width="2" stroke-dasharray="5,2" d="M1148.5,-396C1148.5,-396 878.5,-396 878.5,-396 872.5,-396 866.5,-390 866.5,-384 866.5,-384 866.5,-372 866.5,-372 866.5,-366 872.5,-360 878.5,-360 878.5,-360 1148.5,-360 1148.5,-360 1154.5,-360 1160.5,-366 1160.5,-372 1160.5,-372 1160.5,-384 1160.5,-384 1160.5,-390 1154.5,-396 1148.5,-396"/>
<text text-anchor="middle" x="1013.5" y="-381" font-family="sans" font-size="10.00">write_nii_resolution_to_txt</text>
<text text-anchor="middle" x="1013.5" y="-370" font-family="sans" font-size="10.00">prefix: results/work/sub&#45;001/dwi/sub&#45;001_desc&#45;dwiref_b0</text>
</g>
<!-- 17&#45;&gt;15 -->
<g id="edge29" class="edge">
<title>17&#45;&gt;15</title>
<path fill="none" stroke="grey" stroke-width="2" d="M1014.59,-359.87C1016.12,-335.67 1018.94,-291.21 1020.76,-262.39"/>
<polygon fill="grey" stroke="grey" stroke-width="2" points="1024.27,-262.39 1021.41,-252.19 1017.28,-261.95 1024.27,-262.39"/>
</g>
<!-- 18&#45;&gt;14 -->
<g id="edge26" class="edge">
<title>18&#45;&gt;14</title>
<path fill="none" stroke="grey" stroke-width="2" d="M1223.79,-215.88C1210.83,-206.89 1194.77,-195.76 1180.73,-186.03"/>
<polygon fill="grey" stroke="grey" stroke-width="2" points="1182.52,-183.01 1172.3,-180.19 1178.53,-188.76 1182.52,-183.01"/>
</g>
<!-- 20 -->
<g id="node21" class="node">
<title>20</title>
<path fill="none" stroke="#d8d356" stroke-width="2" d="M1055.5,-180C1055.5,-180 961.5,-180 961.5,-180 955.5,-180 949.5,-174 949.5,-168 949.5,-168 949.5,-156 949.5,-156 949.5,-150 955.5,-144 961.5,-144 961.5,-144 1055.5,-144 1055.5,-144 1061.5,-144 1067.5,-150 1067.5,-156 1067.5,-156 1067.5,-168 1067.5,-168 1067.5,-174 1061.5,-180 1055.5,-180"/>
<text text-anchor="middle" x="1008.5" y="-159.5" font-family="sans" font-size="10.00">rotate_bvecs_to_t1w</text>
</g>
<!-- 18&#45;&gt;20 -->
<g id="edge36" class="edge">
<title>18&#45;&gt;20</title>
<path fill="none" stroke="grey" stroke-width="2" d="M1198.77,-218.5C1163.46,-208.2 1115.61,-194.24 1076.73,-182.9"/>
<polygon fill="grey" stroke="grey" stroke-width="2" points="1077.63,-179.52 1067.05,-180.08 1075.67,-186.24 1077.63,-179.52"/>
</g>
<!-- 19&#45;&gt;14 -->
<g id="edge27" class="edge">
<title>19&#45;&gt;14</title>
<path fill="none" stroke="grey" stroke-width="2" d="M911.31,-218C914.08,-217.32 916.82,-216.65 919.5,-216 986.1,-199.92 1005.18,-196.61 1076.07,-180.09"/>
<polygon fill="grey" stroke="grey" stroke-width="2" points="1076.99,-183.46 1085.93,-177.78 1075.4,-176.65 1076.99,-183.46"/>
</g>
<!-- 19&#45;&gt;22 -->
<g id="edge43" class="edge">
<title>19&#45;&gt;22</title>
<path fill="none" stroke="grey" stroke-width="2" d="M852.5,-215.7C852.5,-207.98 852.5,-198.71 852.5,-190.11"/>
<polygon fill="grey" stroke="grey" stroke-width="2" points="856,-190.1 852.5,-180.1 849,-190.1 856,-190.1"/>
</g>
<!-- 20&#45;&gt;13 -->
<g id="edge23" class="edge">
<title>20&#45;&gt;13</title>
<path fill="none" stroke="grey" stroke-width="2" d="M989.22,-143.7C979.58,-135.05 967.77,-124.45 957.27,-115.03"/>
<polygon fill="grey" stroke="grey" stroke-width="2" points="959.34,-112.18 949.56,-108.1 954.66,-117.39 959.34,-112.18"/>
</g>
<!-- 21&#45;&gt;20 -->
<g id="edge37" class="edge">
<title>21&#45;&gt;20</title>
<path fill="none" stroke="grey" stroke-width="2" d="M640.11,-287.94C673.29,-268.11 731.17,-235.6 784.5,-216 848.29,-192.56 869.42,-196.22 939.02,-180.28"/>
<polygon fill="grey" stroke="grey" stroke-width="2" points="940.24,-183.59 949.18,-177.9 938.64,-176.78 940.24,-183.59"/>
</g>
<!-- 22&#45;&gt;13 -->
<g id="edge24" class="edge">
<title>22&#45;&gt;13</title>
<path fill="none" stroke="grey" stroke-width="2" d="M871.78,-143.7C881.42,-135.05 893.23,-124.45 903.73,-115.03"/>
<polygon fill="grey" stroke="grey" stroke-width="2" points="906.34,-117.39 911.44,-108.1 901.66,-112.18 906.34,-117.39"/>
</g>
<!-- 23 -->
<g id="node24" class="node">
<title>23</title>
<path fill="none" stroke="#d8b456" stroke-width="2" stroke-dasharray="5,2" d="M1291,-828C1291,-828 1172,-828 1172,-828 1166,-828 1160,-822 1160,-816 1160,-816 1160,-804 1160,-804 1160,-798 1166,-792 1172,-792 1172,-792 1291,-792 1291,-792 1297,-792 1303,-798 1303,-804 1303,-804 1303,-816 1303,-816 1303,-822 1297,-828 1291,-828"/>
<text text-anchor="middle" x="1231.5" y="-807.5" font-family="sans" font-size="10.00">concat_phase_encode_txt</text>
</g>
<!-- 23&#45;&gt;43 -->
<g id="edge71" class="edge">
<title>23&#45;&gt;43</title>
<path fill="none" stroke="grey" stroke-width="2" d="M1247.28,-791.8C1255.83,-781.86 1266.12,-768.82 1273.5,-756 1284.91,-736.18 1294.17,-711.93 1300.3,-693.74"/>
<polygon fill="grey" stroke="grey" stroke-width="2" points="1303.68,-694.67 1303.45,-684.08 1297.02,-692.5 1303.68,-694.67"/>
</g>
<!-- 46 -->
<g id="node47" class="node">
<title>46</title>
<path fill="none" stroke="#56d8d0" stroke-width="2" stroke-dasharray="5,2" d="M1253,-756C1253,-756 1212,-756 1212,-756 1206,-756 1200,-750 1200,-744 1200,-744 1200,-732 1200,-732 1200,-726 1206,-720 1212,-720 1212,-720 1253,-720 1253,-720 1259,-720 1265,-726 1265,-732 1265,-732 1265,-744 1265,-744 1265,-750 1259,-756 1253,-756"/>
<text text-anchor="middle" x="1232.5" y="-735.5" font-family="sans" font-size="10.00">run_topup</text>
</g>
<!-- 23&#45;&gt;46 -->
<g id="edge78" class="edge">
<title>23&#45;&gt;46</title>
<path fill="none" stroke="grey" stroke-width="2" d="M1231.75,-791.7C1231.86,-783.98 1231.99,-774.71 1232.11,-766.11"/>
<polygon fill="grey" stroke="grey" stroke-width="2" points="1235.61,-766.15 1232.26,-756.1 1228.61,-766.05 1235.61,-766.15"/>
</g>
<!-- 23&#45;&gt;50 -->
<g id="edge86" class="edge">
<title>23&#45;&gt;50</title>
<path fill="none" stroke="grey" stroke-width="2" d="M1159.88,-792.36C1102.7,-778.78 1031.33,-761.04 1026.5,-756 1010.91,-739.73 1006.8,-713.98 1006.21,-694.35"/>
<polygon fill="grey" stroke="grey" stroke-width="2" points="1009.71,-694.17 1006.19,-684.17 1002.71,-694.18 1009.71,-694.17"/>
</g>
<!-- 23&#45;&gt;54 -->
<g id="edge97" class="edge">
<title>23&#45;&gt;54</title>
<path fill="none" stroke="grey" stroke-width="2" d="M1272.9,-791.97C1318.22,-770.26 1384.5,-728.06 1384.5,-667 1384.5,-667 1384.5,-667 1384.5,-449 1384.5,-407.63 1399.73,-361.72 1410.91,-333.61"/>
<polygon fill="grey" stroke="grey" stroke-width="2" points="1414.26,-334.67 1414.81,-324.09 1407.78,-332.02 1414.26,-334.67"/>
</g>
<!-- 23&#45;&gt;55 -->
<g id="edge102" class="edge">
<title>23&#45;&gt;55</title>
<path fill="none" stroke="grey" stroke-width="2" d="M1293.24,-791.95C1316.71,-783.56 1342.78,-771.79 1363.5,-756 1523.45,-634.15 1573.24,-586.53 1637.5,-396 1653.79,-347.69 1621.58,-292.11 1598.37,-260.52"/>
<polygon fill="grey" stroke="grey" stroke-width="2" points="1600.94,-258.12 1592.11,-252.26 1595.37,-262.35 1600.94,-258.12"/>
</g>
<!-- 24 -->
<g id="node25" class="node">
<title>24</title>
<path fill="none" stroke="#d86e56" stroke-width="2" stroke-dasharray="5,2" d="M1204.5,-902.5C1204.5,-902.5 1102.5,-902.5 1102.5,-902.5 1096.5,-902.5 1090.5,-896.5 1090.5,-890.5 1090.5,-890.5 1090.5,-878.5 1090.5,-878.5 1090.5,-872.5 1096.5,-866.5 1102.5,-866.5 1102.5,-866.5 1204.5,-866.5 1204.5,-866.5 1210.5,-866.5 1216.5,-872.5 1216.5,-878.5 1216.5,-878.5 1216.5,-890.5 1216.5,-890.5 1216.5,-896.5 1210.5,-902.5 1204.5,-902.5"/>
<text text-anchor="middle" x="1153.5" y="-882" font-family="sans" font-size="10.00">get_phase_encode_txt</text>
</g>
<!-- 24&#45;&gt;23 -->
<g id="edge44" class="edge">
<title>24&#45;&gt;23</title>
<path fill="none" stroke="grey" stroke-width="2" d="M1171.98,-866.32C1182.09,-856.93 1194.76,-845.15 1205.81,-834.88"/>
<polygon fill="grey" stroke="grey" stroke-width="2" points="1208.21,-837.43 1213.15,-828.06 1203.44,-832.3 1208.21,-837.43"/>
</g>
<!-- 24&#45;&gt;43 -->
<g id="edge70" class="edge">
<title>24&#45;&gt;43</title>
<path fill="none" stroke="grey" stroke-width="2" d="M1216.68,-869.37C1255.86,-859.18 1300.86,-844.39 1312.5,-828 1340.59,-788.44 1328.76,-728.52 1318.22,-694.03"/>
<polygon fill="grey" stroke="grey" stroke-width="2" points="1321.45,-692.63 1315.04,-684.2 1314.79,-694.79 1321.45,-692.63"/>
</g>
<!-- 25 -->
<g id="node26" class="node">
<title>25</title>
<path fill="none" stroke="#d87556" stroke-width="2" stroke-dasharray="5,2" d="M1134,-982C1134,-982 813,-982 813,-982 807,-982 801,-976 801,-970 801,-970 801,-953 801,-953 801,-947 807,-941 813,-941 813,-941 1134,-941 1134,-941 1140,-941 1146,-947 1146,-953 1146,-953 1146,-970 1146,-970 1146,-976 1140,-982 1134,-982"/>
<text text-anchor="middle" x="973.5" y="-970" font-family="sans" font-size="10.00">get_shell_avg</text>
<text text-anchor="middle" x="973.5" y="-959" font-family="sans" font-size="10.00">dwi_prefix: results/work/sub&#45;001/dwi/sub&#45;001_acq&#45;LR_desc&#45;degibbs</text>
<text text-anchor="middle" x="973.5" y="-948" font-family="sans" font-size="10.00">shell: 0</text>
</g>
<!-- 25&#45;&gt;24 -->
<g id="edge46" class="edge">
<title>25&#45;&gt;24</title>
<path fill="none" stroke="grey" stroke-width="2" d="M1020.32,-940.99C1045.74,-930.4 1077.19,-917.3 1103.13,-906.49"/>
<polygon fill="grey" stroke="grey" stroke-width="2" points="1104.54,-909.69 1112.42,-902.61 1101.85,-903.23 1104.54,-909.69"/>
</g>
<!-- 26 -->
<g id="node27" class="node">
<title>26</title>
<path fill="none" stroke="#56d8c1" stroke-width="2" stroke-dasharray="5,2" d="M1543.5,-1126C1543.5,-1126 1499.5,-1126 1499.5,-1126 1493.5,-1126 1487.5,-1120 1487.5,-1114 1487.5,-1114 1487.5,-1102 1487.5,-1102 1487.5,-1096 1493.5,-1090 1499.5,-1090 1499.5,-1090 1543.5,-1090 1543.5,-1090 1549.5,-1090 1555.5,-1096 1555.5,-1102 1555.5,-1102 1555.5,-1114 1555.5,-1114 1555.5,-1120 1549.5,-1126 1543.5,-1126"/>
<text text-anchor="middle" x="1521.5" y="-1105.5" font-family="sans" font-size="10.00">mrdegibbs</text>
</g>
<!-- 26&#45;&gt;24 -->
<g id="edge47" class="edge">
<title>26&#45;&gt;24</title>
<path fill="none" stroke="grey" stroke-width="2" d="M1487.1,-1107.13C1353.62,-1106.77 873.28,-1097.4 791.5,-982 738.07,-906.61 888.04,-929.4 1041.5,-905 1054.04,-903.01 1067.34,-900.78 1080.24,-898.57"/>
<polygon fill="grey" stroke="grey" stroke-width="2" points="1081.21,-901.96 1090.47,-896.81 1080.02,-895.06 1081.21,-901.96"/>
</g>
<!-- 26&#45;&gt;25 -->
<g id="edge48" class="edge">
<title>26&#45;&gt;25</title>
<path fill="none" stroke="grey" stroke-width="2" d="M1487.46,-1106.93C1389.97,-1106.18 1111.85,-1099.97 1035.5,-1054 1011.84,-1039.75 995.18,-1012.6 985.13,-991.55"/>
<polygon fill="grey" stroke="grey" stroke-width="2" points="988.3,-990.05 980.98,-982.38 981.92,-992.94 988.3,-990.05"/>
</g>
<!-- 31 -->
<g id="node32" class="node">
<title>31</title>
<path fill="none" stroke="#ced856" stroke-width="2" stroke-dasharray="5,2" d="M1400.5,-1054C1400.5,-1054 1056.5,-1054 1056.5,-1054 1050.5,-1054 1044.5,-1048 1044.5,-1042 1044.5,-1042 1044.5,-1030 1044.5,-1030 1044.5,-1024 1050.5,-1018 1056.5,-1018 1056.5,-1018 1400.5,-1018 1400.5,-1018 1406.5,-1018 1412.5,-1024 1412.5,-1030 1412.5,-1030 1412.5,-1042 1412.5,-1042 1412.5,-1048 1406.5,-1054 1400.5,-1054"/>
<text text-anchor="middle" x="1228.5" y="-1039" font-family="sans" font-size="10.00">get_shells_from_bvals</text>
<text text-anchor="middle" x="1228.5" y="-1028" font-family="sans" font-size="10.00">dwi_prefix: results/work/sub&#45;001/dwi/sub&#45;001_acq&#45;LR_desc&#45;degibbs_dwi</text>
</g>
<!-- 26&#45;&gt;31 -->
<g id="edge54" class="edge">
<title>26&#45;&gt;31</title>
<path fill="none" stroke="grey" stroke-width="2" d="M1487.32,-1098.83C1444.08,-1088.5 1368.22,-1070.38 1309.77,-1056.41"/>
<polygon fill="grey" stroke="grey" stroke-width="2" points="1310.35,-1052.96 1299.81,-1054.04 1308.72,-1059.76 1310.35,-1052.96"/>
</g>
<!-- 40 -->
<g id="node41" class="node">
<title>40</title>
<path fill="none" stroke="#5692d8" stroke-width="2" stroke-dasharray="5,2" d="M1780,-828C1780,-828 1691,-828 1691,-828 1685,-828 1679,-822 1679,-816 1679,-816 1679,-804 1679,-804 1679,-798 1685,-792 1691,-792 1691,-792 1780,-792 1780,-792 1786,-792 1792,-798 1792,-804 1792,-804 1792,-816 1792,-816 1792,-822 1786,-828 1780,-828"/>
<text text-anchor="middle" x="1735.5" y="-807.5" font-family="sans" font-size="10.00">get_eddy_index_txt</text>
</g>
<!-- 26&#45;&gt;40 -->
<g id="edge64" class="edge">
<title>26&#45;&gt;40</title>
<path fill="none" stroke="grey" stroke-width="2" d="M1555.72,-1103.79C1611.45,-1097.77 1717.88,-1082.74 1740.5,-1054 1790.32,-990.69 1763.05,-886.66 1745.96,-837.85"/>
<polygon fill="grey" stroke="grey" stroke-width="2" points="1749.2,-836.52 1742.5,-828.31 1742.62,-838.91 1749.2,-836.52"/>
</g>
<!-- 45 -->
<g id="node46" class="node">
<title>45</title>
<path fill="none" stroke="#56d85b" stroke-width="2" stroke-dasharray="5,2" d="M1497,-982C1497,-982 1176,-982 1176,-982 1170,-982 1164,-976 1164,-970 1164,-970 1164,-953 1164,-953 1164,-947 1170,-941 1176,-941 1176,-941 1497,-941 1497,-941 1503,-941 1509,-947 1509,-953 1509,-953 1509,-970 1509,-970 1509,-976 1503,-982 1497,-982"/>
<text text-anchor="middle" x="1336.5" y="-970" font-family="sans" font-size="10.00">get_shell_vols</text>
<text text-anchor="middle" x="1336.5" y="-959" font-family="sans" font-size="10.00">dwi_prefix: results/work/sub&#45;001/dwi/sub&#45;001_acq&#45;LR_desc&#45;degibbs</text>
<text text-anchor="middle" x="1336.5" y="-948" font-family="sans" font-size="10.00">shell: 0</text>
</g>
<!-- 26&#45;&gt;45 -->
<g id="edge75" class="edge">
<title>26&#45;&gt;45</title>
<path fill="none" stroke="grey" stroke-width="2" d="M1503.77,-1089.75C1484.3,-1071.17 1451.78,-1041.15 1421.5,-1018 1407.7,-1007.45 1391.93,-996.8 1377.75,-987.69"/>
<polygon fill="grey" stroke="grey" stroke-width="2" points="1379.48,-984.64 1369.16,-982.23 1375.72,-990.54 1379.48,-984.64"/>
</g>
<!-- 51 -->
<g id="node52" class="node">
<title>51</title>
<path fill="none" stroke="#56b9d8" stroke-width="2" stroke-dasharray="5,2" d="M1616,-396C1616,-396 1539,-396 1539,-396 1533,-396 1527,-390 1527,-384 1527,-384 1527,-372 1527,-372 1527,-366 1533,-360 1539,-360 1539,-360 1616,-360 1616,-360 1622,-360 1628,-366 1628,-372 1628,-372 1628,-384 1628,-384 1628,-390 1622,-396 1616,-396"/>
<text text-anchor="middle" x="1577.5" y="-381" font-family="sans" font-size="10.00">concat_runs_bval</text>
<text text-anchor="middle" x="1577.5" y="-370" font-family="sans" font-size="10.00">desc: degibbs</text>
</g>
<!-- 26&#45;&gt;51 -->
<g id="edge89" class="edge">
<title>26&#45;&gt;51</title>
<path fill="none" stroke="grey" stroke-width="2" d="M1555.59,-1100.64C1581.34,-1093.85 1614.98,-1080.3 1631.5,-1054 1640.01,-1040.45 1632.23,-1033.98 1631.5,-1018 1627.27,-925.71 1612.5,-903.39 1612.5,-811 1612.5,-811 1612.5,-811 1612.5,-521 1612.5,-479.84 1598.47,-433.88 1588.17,-405.69"/>
<polygon fill="grey" stroke="grey" stroke-width="2" points="1591.38,-404.28 1584.58,-396.15 1584.83,-406.74 1591.38,-404.28"/>
</g>
<!-- 52 -->
<g id="node53" class="node">
<title>52</title>
<path fill="none" stroke="#56d0d8" stroke-width="2" stroke-dasharray="5,2" d="M1733.5,-612C1733.5,-612 1653.5,-612 1653.5,-612 1647.5,-612 1641.5,-606 1641.5,-600 1641.5,-600 1641.5,-588 1641.5,-588 1641.5,-582 1647.5,-576 1653.5,-576 1653.5,-576 1733.5,-576 1733.5,-576 1739.5,-576 1745.5,-582 1745.5,-588 1745.5,-588 1745.5,-600 1745.5,-600 1745.5,-606 1739.5,-612 1733.5,-612"/>
<text text-anchor="middle" x="1693.5" y="-597" font-family="sans" font-size="10.00">concat_runs_bvec</text>
<text text-anchor="middle" x="1693.5" y="-586" font-family="sans" font-size="10.00">desc: degibbs</text>
</g>
<!-- 26&#45;&gt;52 -->
<g id="edge91" class="edge">
<title>26&#45;&gt;52</title>
<path fill="none" stroke="grey" stroke-width="2" d="M1555.51,-1105.99C1633.88,-1101.66 1820.5,-1079.1 1820.5,-962.5 1820.5,-962.5 1820.5,-962.5 1820.5,-737 1820.5,-684.03 1770.79,-641.76 1733.57,-617.53"/>
<polygon fill="grey" stroke="grey" stroke-width="2" points="1735.22,-614.43 1724.89,-612.06 1731.48,-620.35 1735.22,-614.43"/>
</g>
<!-- 53 -->
<g id="node54" class="node">
<title>53</title>
<path fill="none" stroke="#56d8c9" stroke-width="2" stroke-dasharray="5,2" d="M1610,-1054C1610,-1054 1519,-1054 1519,-1054 1513,-1054 1507,-1048 1507,-1042 1507,-1042 1507,-1030 1507,-1030 1507,-1024 1513,-1018 1519,-1018 1519,-1018 1610,-1018 1610,-1018 1616,-1018 1622,-1024 1622,-1030 1622,-1030 1622,-1042 1622,-1042 1622,-1048 1616,-1054 1610,-1054"/>
<text text-anchor="middle" x="1564.5" y="-1033.5" font-family="sans" font-size="10.00">concat_degibbs_dwi</text>
</g>
<!-- 26&#45;&gt;53 -->
<g id="edge93" class="edge">
<title>26&#45;&gt;53</title>
<path fill="none" stroke="grey" stroke-width="2" d="M1532.13,-1089.7C1537.13,-1081.56 1543.19,-1071.69 1548.71,-1062.7"/>
<polygon fill="grey" stroke="grey" stroke-width="2" points="1551.74,-1064.46 1553.99,-1054.1 1545.78,-1060.79 1551.74,-1064.46"/>
</g>
<!-- 27 -->
<g id="node28" class="node">
<title>27</title>
<path fill="none" stroke="#56d892" stroke-width="2" stroke-dasharray="5,2" d="M1406.5,-1214C1406.5,-1214 1354.5,-1214 1354.5,-1214 1348.5,-1214 1342.5,-1208 1342.5,-1202 1342.5,-1202 1342.5,-1174 1342.5,-1174 1342.5,-1168 1348.5,-1162 1354.5,-1162 1354.5,-1162 1406.5,-1162 1406.5,-1162 1412.5,-1162 1418.5,-1168 1418.5,-1174 1418.5,-1174 1418.5,-1202 1418.5,-1202 1418.5,-1208 1412.5,-1214 1406.5,-1214"/>
<text text-anchor="middle" x="1380.5" y="-1202" font-family="sans" font-size="10.00">import_dwi</text>
<text text-anchor="middle" x="1380.5" y="-1191" font-family="sans" font-size="10.00">acq: LR</text>
<text text-anchor="middle" x="1380.5" y="-1180" font-family="sans" font-size="10.00">ext: nii.gz</text>
<text text-anchor="middle" x="1380.5" y="-1169" font-family="sans" font-size="10.00">subject: 001</text>
</g>
<!-- 27&#45;&gt;26 -->
<g id="edge50" class="edge">
<title>27&#45;&gt;26</title>
<path fill="none" stroke="grey" stroke-width="2" d="M1418.66,-1165.89C1438.18,-1155.09 1461.92,-1141.96 1481.67,-1131.03"/>
<polygon fill="grey" stroke="grey" stroke-width="2" points="1483.38,-1134.09 1490.44,-1126.18 1480,-1127.96 1483.38,-1134.09"/>
</g>
<!-- 28 -->
<g id="node29" class="node">
<title>28</title>
<path fill="none" stroke="#56d892" stroke-width="2" stroke-dasharray="5,2" d="M1500.5,-1214C1500.5,-1214 1448.5,-1214 1448.5,-1214 1442.5,-1214 1436.5,-1208 1436.5,-1202 1436.5,-1202 1436.5,-1174 1436.5,-1174 1436.5,-1168 1442.5,-1162 1448.5,-1162 1448.5,-1162 1500.5,-1162 1500.5,-1162 1506.5,-1162 1512.5,-1168 1512.5,-1174 1512.5,-1174 1512.5,-1202 1512.5,-1202 1512.5,-1208 1506.5,-1214 1500.5,-1214"/>
<text text-anchor="middle" x="1474.5" y="-1202" font-family="sans" font-size="10.00">import_dwi</text>
<text text-anchor="middle" x="1474.5" y="-1191" font-family="sans" font-size="10.00">acq: LR</text>
<text text-anchor="middle" x="1474.5" y="-1180" font-family="sans" font-size="10.00">ext: bvec</text>
<text text-anchor="middle" x="1474.5" y="-1169" font-family="sans" font-size="10.00">subject: 001</text>
</g>
<!-- 28&#45;&gt;26 -->
<g id="edge51" class="edge">
<title>28&#45;&gt;26</title>
<path fill="none" stroke="grey" stroke-width="2" d="M1489.63,-1161.89C1494.81,-1153.3 1500.61,-1143.67 1505.83,-1135.01"/>
<polygon fill="grey" stroke="grey" stroke-width="2" points="1508.85,-1136.78 1511.01,-1126.41 1502.85,-1133.17 1508.85,-1136.78"/>
</g>
<!-- 29 -->
<g id="node30" class="node">
<title>29</title>
<path fill="none" stroke="#56d892" stroke-width="2" stroke-dasharray="5,2" d="M1594.5,-1214C1594.5,-1214 1542.5,-1214 1542.5,-1214 1536.5,-1214 1530.5,-1208 1530.5,-1202 1530.5,-1202 1530.5,-1174 1530.5,-1174 1530.5,-1168 1536.5,-1162 1542.5,-1162 1542.5,-1162 1594.5,-1162 1594.5,-1162 1600.5,-1162 1606.5,-1168 1606.5,-1174 1606.5,-1174 1606.5,-1202 1606.5,-1202 1606.5,-1208 1600.5,-1214 1594.5,-1214"/>
<text text-anchor="middle" x="1568.5" y="-1202" font-family="sans" font-size="10.00">import_dwi</text>
<text text-anchor="middle" x="1568.5" y="-1191" font-family="sans" font-size="10.00">acq: LR</text>
<text text-anchor="middle" x="1568.5" y="-1180" font-family="sans" font-size="10.00">ext: bval</text>
<text text-anchor="middle" x="1568.5" y="-1169" font-family="sans" font-size="10.00">subject: 001</text>
</g>
<!-- 29&#45;&gt;26 -->
<g id="edge52" class="edge">
<title>29&#45;&gt;26</title>
<path fill="none" stroke="grey" stroke-width="2" d="M1553.37,-1161.89C1548.19,-1153.3 1542.39,-1143.67 1537.17,-1135.01"/>
<polygon fill="grey" stroke="grey" stroke-width="2" points="1540.15,-1133.17 1531.99,-1126.41 1534.15,-1136.78 1540.15,-1133.17"/>
</g>
<!-- 30 -->
<g id="node31" class="node">
<title>30</title>
<path fill="none" stroke="#56d892" stroke-width="2" stroke-dasharray="5,2" d="M1688.5,-1214C1688.5,-1214 1636.5,-1214 1636.5,-1214 1630.5,-1214 1624.5,-1208 1624.5,-1202 1624.5,-1202 1624.5,-1174 1624.5,-1174 1624.5,-1168 1630.5,-1162 1636.5,-1162 1636.5,-1162 1688.5,-1162 1688.5,-1162 1694.5,-1162 1700.5,-1168 1700.5,-1174 1700.5,-1174 1700.5,-1202 1700.5,-1202 1700.5,-1208 1694.5,-1214 1688.5,-1214"/>
<text text-anchor="middle" x="1662.5" y="-1202" font-family="sans" font-size="10.00">import_dwi</text>
<text text-anchor="middle" x="1662.5" y="-1191" font-family="sans" font-size="10.00">acq: LR</text>
<text text-anchor="middle" x="1662.5" y="-1180" font-family="sans" font-size="10.00">ext: json</text>
<text text-anchor="middle" x="1662.5" y="-1169" font-family="sans" font-size="10.00">subject: 001</text>
</g>
<!-- 30&#45;&gt;26 -->
<g id="edge53" class="edge">
<title>30&#45;&gt;26</title>
<path fill="none" stroke="grey" stroke-width="2" d="M1624.34,-1165.89C1604.82,-1155.09 1581.08,-1141.96 1561.33,-1131.03"/>
<polygon fill="grey" stroke="grey" stroke-width="2" points="1563,-1127.96 1552.56,-1126.18 1559.62,-1134.09 1563,-1127.96"/>
</g>
<!-- 31&#45;&gt;25 -->
<g id="edge49" class="edge">
<title>31&#45;&gt;25</title>
<path fill="none" stroke="grey" stroke-width="2" d="M1168.39,-1017.91C1133.65,-1008.03 1089.55,-995.49 1052.09,-984.84"/>
<polygon fill="grey" stroke="grey" stroke-width="2" points="1052.79,-981.4 1042.21,-982.04 1050.88,-988.14 1052.79,-981.4"/>
</g>
<!-- 31&#45;&gt;45 -->
<g id="edge76" class="edge">
<title>31&#45;&gt;45</title>
<path fill="none" stroke="grey" stroke-width="2" d="M1254.09,-1017.82C1267.44,-1008.86 1284.03,-997.72 1298.81,-987.8"/>
<polygon fill="grey" stroke="grey" stroke-width="2" points="1300.92,-990.6 1307.27,-982.12 1297.02,-984.79 1300.92,-990.6"/>
</g>
<!-- 32 -->
<g id="node33" class="node">
<title>32</title>
<path fill="none" stroke="#d86e56" stroke-width="2" stroke-dasharray="5,2" d="M1020.5,-902.5C1020.5,-902.5 918.5,-902.5 918.5,-902.5 912.5,-902.5 906.5,-896.5 906.5,-890.5 906.5,-890.5 906.5,-878.5 906.5,-878.5 906.5,-872.5 912.5,-866.5 918.5,-866.5 918.5,-866.5 1020.5,-866.5 1020.5,-866.5 1026.5,-866.5 1032.5,-872.5 1032.5,-878.5 1032.5,-878.5 1032.5,-890.5 1032.5,-890.5 1032.5,-896.5 1026.5,-902.5 1020.5,-902.5"/>
<text text-anchor="middle" x="969.5" y="-882" font-family="sans" font-size="10.00">get_phase_encode_txt</text>
</g>
<!-- 32&#45;&gt;23 -->
<g id="edge45" class="edge">
<title>32&#45;&gt;23</title>
<path fill="none" stroke="grey" stroke-width="2" d="M1031.26,-866.41C1069.83,-855.74 1119.65,-841.95 1159.94,-830.8"/>
<polygon fill="grey" stroke="grey" stroke-width="2" points="1161,-834.14 1169.7,-828.1 1159.13,-827.39 1161,-834.14"/>
</g>
<!-- 32&#45;&gt;50 -->
<g id="edge85" class="edge">
<title>32&#45;&gt;50</title>
<path fill="none" stroke="grey" stroke-width="2" d="M972.55,-866.15C979.15,-828.53 994.83,-739.21 1002.75,-694.08"/>
<polygon fill="grey" stroke="grey" stroke-width="2" points="1006.21,-694.59 1004.49,-684.13 999.32,-693.38 1006.21,-694.59"/>
</g>
<!-- 33 -->
<g id="node34" class="node">
<title>33</title>
<path fill="none" stroke="#d87556" stroke-width="2" stroke-dasharray="5,2" d="M696,-982C696,-982 375,-982 375,-982 369,-982 363,-976 363,-970 363,-970 363,-953 363,-953 363,-947 369,-941 375,-941 375,-941 696,-941 696,-941 702,-941 708,-947 708,-953 708,-953 708,-970 708,-970 708,-976 702,-982 696,-982"/>
<text text-anchor="middle" x="535.5" y="-970" font-family="sans" font-size="10.00">get_shell_avg</text>
<text text-anchor="middle" x="535.5" y="-959" font-family="sans" font-size="10.00">dwi_prefix: results/work/sub&#45;001/dwi/sub&#45;001_acq&#45;RL_desc&#45;degibbs</text>
<text text-anchor="middle" x="535.5" y="-948" font-family="sans" font-size="10.00">shell: 0</text>
</g>
<!-- 33&#45;&gt;32 -->
<g id="edge55" class="edge">
<title>33&#45;&gt;32</title>
<path fill="none" stroke="grey" stroke-width="2" d="M688.1,-940.99C752.96,-931.69 829.23,-919.43 897.5,-905 897.83,-904.93 898.17,-904.86 898.5,-904.79"/>
<polygon fill="grey" stroke="grey" stroke-width="2" points="899.35,-908.18 908.34,-902.57 897.81,-901.35 899.35,-908.18"/>
</g>
<!-- 34 -->
<g id="node35" class="node">
<title>34</title>
<path fill="none" stroke="#56d8c1" stroke-width="2" stroke-dasharray="5,2" d="M1031.5,-1126C1031.5,-1126 987.5,-1126 987.5,-1126 981.5,-1126 975.5,-1120 975.5,-1114 975.5,-1114 975.5,-1102 975.5,-1102 975.5,-1096 981.5,-1090 987.5,-1090 987.5,-1090 1031.5,-1090 1031.5,-1090 1037.5,-1090 1043.5,-1096 1043.5,-1102 1043.5,-1102 1043.5,-1114 1043.5,-1114 1043.5,-1120 1037.5,-1126 1031.5,-1126"/>
<text text-anchor="middle" x="1009.5" y="-1105.5" font-family="sans" font-size="10.00">mrdegibbs</text>
</g>
<!-- 34&#45;&gt;32 -->
<g id="edge56" class="edge">
<title>34&#45;&gt;32</title>
<path fill="none" stroke="grey" stroke-width="2" d="M975.46,-1104.92C913.53,-1100.36 786.31,-1087.09 759.5,-1054 727.88,-1014.98 728.79,-980.74 759.5,-941 796.36,-893.29 832.53,-918.5 896.59,-904.96"/>
<polygon fill="grey" stroke="grey" stroke-width="2" points="897.77,-908.28 906.68,-902.55 896.14,-901.47 897.77,-908.28"/>
</g>
<!-- 34&#45;&gt;33 -->
<g id="edge57" class="edge">
<title>34&#45;&gt;33</title>
<path fill="none" stroke="grey" stroke-width="2" d="M975.42,-1106.29C919.72,-1103.93 806.84,-1094.13 721.5,-1054 698.94,-1043.39 699.96,-1030.68 678.5,-1018 656.74,-1005.14 631.45,-994.19 608.25,-985.5"/>
<polygon fill="grey" stroke="grey" stroke-width="2" points="609.39,-982.18 598.79,-982.03 606.98,-988.76 609.39,-982.18"/>
</g>
<!-- 39 -->
<g id="node40" class="node">
<title>39</title>
<path fill="none" stroke="#ced856" stroke-width="2" stroke-dasharray="5,2" d="M657.5,-1054C657.5,-1054 313.5,-1054 313.5,-1054 307.5,-1054 301.5,-1048 301.5,-1042 301.5,-1042 301.5,-1030 301.5,-1030 301.5,-1024 307.5,-1018 313.5,-1018 313.5,-1018 657.5,-1018 657.5,-1018 663.5,-1018 669.5,-1024 669.5,-1030 669.5,-1030 669.5,-1042 669.5,-1042 669.5,-1048 663.5,-1054 657.5,-1054"/>
<text text-anchor="middle" x="485.5" y="-1039" font-family="sans" font-size="10.00">get_shells_from_bvals</text>
<text text-anchor="middle" x="485.5" y="-1028" font-family="sans" font-size="10.00">dwi_prefix: results/work/sub&#45;001/dwi/sub&#45;001_acq&#45;RL_desc&#45;degibbs_dwi</text>
</g>
<!-- 34&#45;&gt;39 -->
<g id="edge63" class="edge">
<title>34&#45;&gt;39</title>
<path fill="none" stroke="grey" stroke-width="2" d="M975.12,-1102.41C904.93,-1093.03 741.77,-1071.23 623.04,-1055.37"/>
<polygon fill="grey" stroke="grey" stroke-width="2" points="623.15,-1051.86 612.77,-1054 622.22,-1058.8 623.15,-1051.86"/>
</g>
<!-- 34&#45;&gt;40 -->
<g id="edge65" class="edge">
<title>34&#45;&gt;40</title>
<path fill="none" stroke="grey" stroke-width="2" d="M1043.56,-1106.47C1171.16,-1104.19 1616.07,-1093.45 1664.5,-1054 1730.19,-1000.48 1737.21,-889.76 1736.67,-838.34"/>
<polygon fill="grey" stroke="grey" stroke-width="2" points="1740.17,-838.24 1736.46,-828.31 1733.17,-838.38 1740.17,-838.24"/>
</g>
<!-- 49 -->
<g id="node50" class="node">
<title>49</title>
<path fill="none" stroke="#56d85b" stroke-width="2" stroke-dasharray="5,2" d="M333,-982C333,-982 12,-982 12,-982 6,-982 0,-976 0,-970 0,-970 0,-953 0,-953 0,-947 6,-941 12,-941 12,-941 333,-941 333,-941 339,-941 345,-947 345,-953 345,-953 345,-970 345,-970 345,-976 339,-982 333,-982"/>
<text text-anchor="middle" x="172.5" y="-970" font-family="sans" font-size="10.00">get_shell_vols</text>
<text text-anchor="middle" x="172.5" y="-959" font-family="sans" font-size="10.00">dwi_prefix: results/work/sub&#45;001/dwi/sub&#45;001_acq&#45;RL_desc&#45;degibbs</text>
<text text-anchor="middle" x="172.5" y="-948" font-family="sans" font-size="10.00">shell: 0</text>
</g>
<!-- 34&#45;&gt;49 -->
<g id="edge82" class="edge">
<title>34&#45;&gt;49</title>
<path fill="none" stroke="grey" stroke-width="2" d="M975.2,-1107.03C850.2,-1106.76 419.71,-1102.26 292.5,-1054 255.75,-1040.06 220.86,-1011.03 198.27,-989.38"/>
<polygon fill="grey" stroke="grey" stroke-width="2" points="200.69,-986.86 191.09,-982.36 195.79,-991.86 200.69,-986.86"/>
</g>
<!-- 34&#45;&gt;51 -->
<g id="edge90" class="edge">
<title>34&#45;&gt;51</title>
<path fill="none" stroke="grey" stroke-width="2" d="M1043.57,-1104.86C1129.47,-1099.11 1352.93,-1081.84 1421.5,-1054 1470.91,-1033.93 1489.13,-1027.16 1517.5,-982 1540.75,-944.98 1536.5,-929.21 1536.5,-885.5 1536.5,-885.5 1536.5,-885.5 1536.5,-521 1536.5,-479.41 1552.94,-433.56 1565,-405.51"/>
<polygon fill="grey" stroke="grey" stroke-width="2" points="1568.35,-406.59 1569.2,-396.03 1561.95,-403.75 1568.35,-406.59"/>
</g>
<!-- 34&#45;&gt;52 -->
<g id="edge92" class="edge">
<title>34&#45;&gt;52</title>
<path fill="none" stroke="grey" stroke-width="2" d="M1043.63,-1106.43C1167.33,-1104.07 1587.31,-1093.19 1631.5,-1054 1662.57,-1026.44 1650.5,-1004.03 1650.5,-962.5 1650.5,-962.5 1650.5,-962.5 1650.5,-809 1650.5,-740.5 1671.94,-662.04 1684.54,-621.84"/>
<polygon fill="grey" stroke="grey" stroke-width="2" points="1687.9,-622.83 1687.61,-612.24 1681.23,-620.7 1687.9,-622.83"/>
</g>
<!-- 34&#45;&gt;53 -->
<g id="edge94" class="edge">
<title>34&#45;&gt;53</title>
<path fill="none" stroke="grey" stroke-width="2" d="M1043.61,-1103.35C1118.22,-1095.27 1301.49,-1074.93 1454.5,-1054 1468.21,-1052.12 1482.86,-1049.97 1496.85,-1047.83"/>
<polygon fill="grey" stroke="grey" stroke-width="2" points="1497.54,-1051.27 1506.89,-1046.29 1496.48,-1044.35 1497.54,-1051.27"/>
</g>
<!-- 35 -->
<g id="node36" class="node">
<title>35</title>
<path fill="none" stroke="#56d892" stroke-width="2" stroke-dasharray="5,2" d="M894.5,-1214C894.5,-1214 842.5,-1214 842.5,-1214 836.5,-1214 830.5,-1208 830.5,-1202 830.5,-1202 830.5,-1174 830.5,-1174 830.5,-1168 836.5,-1162 842.5,-1162 842.5,-1162 894.5,-1162 894.5,-1162 900.5,-1162 906.5,-1168 906.5,-1174 906.5,-1174 906.5,-1202 906.5,-1202 906.5,-1208 900.5,-1214 894.5,-1214"/>
<text text-anchor="middle" x="868.5" y="-1202" font-family="sans" font-size="10.00">import_dwi</text>
<text text-anchor="middle" x="868.5" y="-1191" font-family="sans" font-size="10.00">acq: RL</text>
<text text-anchor="middle" x="868.5" y="-1180" font-family="sans" font-size="10.00">ext: nii.gz</text>
<text text-anchor="middle" x="868.5" y="-1169" font-family="sans" font-size="10.00">subject: 001</text>
</g>
<!-- 35&#45;&gt;34 -->
<g id="edge59" class="edge">
<title>35&#45;&gt;34</title>
<path fill="none" stroke="grey" stroke-width="2" d="M906.66,-1165.89C926.18,-1155.09 949.92,-1141.96 969.67,-1131.03"/>
<polygon fill="grey" stroke="grey" stroke-width="2" points="971.38,-1134.09 978.44,-1126.18 968,-1127.96 971.38,-1134.09"/>
</g>
<!-- 36 -->
<g id="node37" class="node">
<title>36</title>
<path fill="none" stroke="#56d892" stroke-width="2" stroke-dasharray="5,2" d="M988.5,-1214C988.5,-1214 936.5,-1214 936.5,-1214 930.5,-1214 924.5,-1208 924.5,-1202 924.5,-1202 924.5,-1174 924.5,-1174 924.5,-1168 930.5,-1162 936.5,-1162 936.5,-1162 988.5,-1162 988.5,-1162 994.5,-1162 1000.5,-1168 1000.5,-1174 1000.5,-1174 1000.5,-1202 1000.5,-1202 1000.5,-1208 994.5,-1214 988.5,-1214"/>
<text text-anchor="middle" x="962.5" y="-1202" font-family="sans" font-size="10.00">import_dwi</text>
<text text-anchor="middle" x="962.5" y="-1191" font-family="sans" font-size="10.00">acq: RL</text>
<text text-anchor="middle" x="962.5" y="-1180" font-family="sans" font-size="10.00">ext: bvec</text>
<text text-anchor="middle" x="962.5" y="-1169" font-family="sans" font-size="10.00">subject: 001</text>
</g>
<!-- 36&#45;&gt;34 -->
<g id="edge60" class="edge">
<title>36&#45;&gt;34</title>
<path fill="none" stroke="grey" stroke-width="2" d="M977.63,-1161.89C982.81,-1153.3 988.61,-1143.67 993.83,-1135.01"/>
<polygon fill="grey" stroke="grey" stroke-width="2" points="996.85,-1136.78 999.01,-1126.41 990.85,-1133.17 996.85,-1136.78"/>
</g>
<!-- 37 -->
<g id="node38" class="node">
<title>37</title>
<path fill="none" stroke="#56d892" stroke-width="2" stroke-dasharray="5,2" d="M1082.5,-1214C1082.5,-1214 1030.5,-1214 1030.5,-1214 1024.5,-1214 1018.5,-1208 1018.5,-1202 1018.5,-1202 1018.5,-1174 1018.5,-1174 1018.5,-1168 1024.5,-1162 1030.5,-1162 1030.5,-1162 1082.5,-1162 1082.5,-1162 1088.5,-1162 1094.5,-1168 1094.5,-1174 1094.5,-1174 1094.5,-1202 1094.5,-1202 1094.5,-1208 1088.5,-1214 1082.5,-1214"/>
<text text-anchor="middle" x="1056.5" y="-1202" font-family="sans" font-size="10.00">import_dwi</text>
<text text-anchor="middle" x="1056.5" y="-1191" font-family="sans" font-size="10.00">acq: RL</text>
<text text-anchor="middle" x="1056.5" y="-1180" font-family="sans" font-size="10.00">ext: bval</text>
<text text-anchor="middle" x="1056.5" y="-1169" font-family="sans" font-size="10.00">subject: 001</text>
</g>
<!-- 37&#45;&gt;34 -->
<g id="edge61" class="edge">
<title>37&#45;&gt;34</title>
<path fill="none" stroke="grey" stroke-width="2" d="M1041.37,-1161.89C1036.19,-1153.3 1030.39,-1143.67 1025.17,-1135.01"/>
<polygon fill="grey" stroke="grey" stroke-width="2" points="1028.15,-1133.17 1019.99,-1126.41 1022.15,-1136.78 1028.15,-1133.17"/>
</g>
<!-- 38 -->
<g id="node39" class="node">
<title>38</title>
<path fill="none" stroke="#56d892" stroke-width="2" stroke-dasharray="5,2" d="M1176.5,-1214C1176.5,-1214 1124.5,-1214 1124.5,-1214 1118.5,-1214 1112.5,-1208 1112.5,-1202 1112.5,-1202 1112.5,-1174 1112.5,-1174 1112.5,-1168 1118.5,-1162 1124.5,-1162 1124.5,-1162 1176.5,-1162 1176.5,-1162 1182.5,-1162 1188.5,-1168 1188.5,-1174 1188.5,-1174 1188.5,-1202 1188.5,-1202 1188.5,-1208 1182.5,-1214 1176.5,-1214"/>
<text text-anchor="middle" x="1150.5" y="-1202" font-family="sans" font-size="10.00">import_dwi</text>
<text text-anchor="middle" x="1150.5" y="-1191" font-family="sans" font-size="10.00">acq: RL</text>
<text text-anchor="middle" x="1150.5" y="-1180" font-family="sans" font-size="10.00">ext: json</text>
<text text-anchor="middle" x="1150.5" y="-1169" font-family="sans" font-size="10.00">subject: 001</text>
</g>
<!-- 38&#45;&gt;34 -->
<g id="edge62" class="edge">
<title>38&#45;&gt;34</title>
<path fill="none" stroke="grey" stroke-width="2" d="M1112.34,-1165.89C1092.82,-1155.09 1069.08,-1141.96 1049.33,-1131.03"/>
<polygon fill="grey" stroke="grey" stroke-width="2" points="1051,-1127.96 1040.56,-1126.18 1047.62,-1134.09 1051,-1127.96"/>
</g>
<!-- 39&#45;&gt;33 -->
<g id="edge58" class="edge">
<title>39&#45;&gt;33</title>
<path fill="none" stroke="grey" stroke-width="2" d="M497.35,-1017.82C502.95,-1009.7 509.79,-999.79 516.11,-990.61"/>
<polygon fill="grey" stroke="grey" stroke-width="2" points="519.17,-992.34 521.97,-982.12 513.41,-988.36 519.17,-992.34"/>
</g>
<!-- 39&#45;&gt;49 -->
<g id="edge83" class="edge">
<title>39&#45;&gt;49</title>
<path fill="none" stroke="grey" stroke-width="2" d="M411.72,-1017.91C368.36,-1007.87 313.1,-995.07 266.62,-984.3"/>
<polygon fill="grey" stroke="grey" stroke-width="2" points="267.38,-980.88 256.84,-982.04 265.8,-987.7 267.38,-980.88"/>
</g>
<!-- 40&#45;&gt;54 -->
<g id="edge98" class="edge">
<title>40&#45;&gt;54</title>
<path fill="none" stroke="grey" stroke-width="2" d="M1724.34,-791.82C1687.82,-735.49 1568.78,-551.11 1474.5,-396 1461.68,-374.9 1447.57,-350.7 1437.29,-332.86"/>
<polygon fill="grey" stroke="grey" stroke-width="2" points="1440.31,-331.09 1432.29,-324.17 1434.24,-334.58 1440.31,-331.09"/>
</g>
<!-- 40&#45;&gt;55 -->
<g id="edge103" class="edge">
<title>40&#45;&gt;55</title>
<path fill="none" stroke="grey" stroke-width="2" d="M1765.59,-791.89C1802,-768.7 1858.5,-723.59 1858.5,-667 1858.5,-667 1858.5,-667 1858.5,-377 1858.5,-272.64 1702.2,-244.96 1622.74,-237.63"/>
<polygon fill="grey" stroke="grey" stroke-width="2" points="1622.78,-234.12 1612.52,-236.76 1622.19,-241.1 1622.78,-234.12"/>
</g>
<!-- 41 -->
<g id="node42" class="node">
<title>41</title>
<path fill="none" stroke="#56d8b1" stroke-width="2" stroke-dasharray="5,2" d="M1023,-540C1023,-540 978,-540 978,-540 972,-540 966,-534 966,-528 966,-528 966,-516 966,-516 966,-510 972,-504 978,-504 978,-504 1023,-504 1023,-504 1029,-504 1035,-510 1035,-516 1035,-516 1035,-528 1035,-528 1035,-534 1029,-540 1023,-540"/>
<text text-anchor="middle" x="1000.5" y="-519.5" font-family="sans" font-size="10.00">cp_dwi_ref</text>
</g>
<!-- 41&#45;&gt;2 -->
<g id="edge6" class="edge">
<title>41&#45;&gt;2</title>
<path fill="none" stroke="grey" stroke-width="2" d="M1035.06,-515.5C1070.5,-508.66 1126.14,-494.5 1167.5,-468 1193.4,-451.41 1216.3,-424.47 1231.08,-404.57"/>
<polygon fill="grey" stroke="grey" stroke-width="2" points="1234.07,-406.4 1237.09,-396.25 1228.4,-402.3 1234.07,-406.4"/>
</g>
<!-- 41&#45;&gt;3 -->
<g id="edge7" class="edge">
<title>41&#45;&gt;3</title>
<path fill="none" stroke="grey" stroke-width="2" d="M1035.33,-513.27C1078.84,-503.46 1155.48,-485.68 1220.5,-468 1221.97,-467.6 1223.46,-467.19 1224.96,-466.77"/>
<polygon fill="grey" stroke="grey" stroke-width="2" points="1226.34,-470.02 1234.99,-463.9 1224.41,-463.29 1226.34,-470.02"/>
</g>
<!-- 41&#45;&gt;4 -->
<g id="edge9" class="edge">
<title>41&#45;&gt;4</title>
<path fill="none" stroke="grey" stroke-width="2" d="M965.86,-520.34C849.88,-517.77 480.58,-506.59 445.5,-468 434.74,-456.16 436.67,-445.34 445.5,-432 459.34,-411.08 600.42,-357.31 682.01,-327.56"/>
<polygon fill="grey" stroke="grey" stroke-width="2" points="683.45,-330.76 691.65,-324.06 681.06,-324.18 683.45,-330.76"/>
</g>
<!-- 41&#45;&gt;6 -->
<g id="edge14" class="edge">
<title>41&#45;&gt;6</title>
<path fill="none" stroke="grey" stroke-width="2" d="M965.72,-518.51C929.23,-514.09 872.43,-501.87 837.5,-468 820.61,-451.63 812.61,-425.71 808.83,-406.05"/>
<polygon fill="grey" stroke="grey" stroke-width="2" points="812.27,-405.44 807.17,-396.16 805.37,-406.6 812.27,-405.44"/>
</g>
<!-- 41&#45;&gt;12 -->
<g id="edge21" class="edge">
<title>41&#45;&gt;12</title>
<path fill="none" stroke="grey" stroke-width="2" d="M998.77,-503.7C998,-495.98 997.07,-486.71 996.21,-478.11"/>
<polygon fill="grey" stroke="grey" stroke-width="2" points="999.69,-477.71 995.21,-468.1 992.72,-478.4 999.69,-477.71"/>
</g>
<!-- 41&#45;&gt;17 -->
<g id="edge31" class="edge">
<title>41&#45;&gt;17</title>
<path fill="none" stroke="grey" stroke-width="2" d="M1035.31,-519.54C1070.67,-515.98 1123.78,-504.45 1149.5,-468 1158.73,-454.93 1158.53,-445.21 1149.5,-432 1140.09,-418.23 1126.52,-408.03 1111.56,-400.49"/>
<polygon fill="grey" stroke="grey" stroke-width="2" points="1112.63,-397.13 1102.09,-396.12 1109.7,-403.49 1112.63,-397.13"/>
</g>
<!-- 41&#45;&gt;21 -->
<g id="edge40" class="edge">
<title>41&#45;&gt;21</title>
<path fill="none" stroke="grey" stroke-width="2" d="M965.99,-520.41C848.66,-518.04 470.39,-507.4 434.5,-468 384.86,-413.49 488.86,-357.43 557.84,-327.99"/>
<polygon fill="grey" stroke="grey" stroke-width="2" points="559.45,-331.11 567.32,-324.02 556.74,-324.65 559.45,-331.11"/>
</g>
<!-- 42 -->
<g id="node43" class="node">
<title>42</title>
<path fill="none" stroke="#56d8a2" stroke-width="2" stroke-dasharray="5,2" d="M1050.5,-612C1050.5,-612 964.5,-612 964.5,-612 958.5,-612 952.5,-606 952.5,-600 952.5,-600 952.5,-588 952.5,-588 952.5,-582 958.5,-576 964.5,-576 964.5,-576 1050.5,-576 1050.5,-576 1056.5,-576 1062.5,-582 1062.5,-588 1062.5,-588 1062.5,-600 1062.5,-600 1062.5,-606 1056.5,-612 1050.5,-612"/>
<text text-anchor="middle" x="1007.5" y="-591.5" font-family="sans" font-size="10.00">avg_b0s_topup_jac</text>
</g>
<!-- 42&#45;&gt;41 -->
<g id="edge66" class="edge">
<title>42&#45;&gt;41</title>
<path fill="none" stroke="grey" stroke-width="2" d="M1005.77,-575.7C1005,-567.98 1004.07,-558.71 1003.21,-550.11"/>
<polygon fill="grey" stroke="grey" stroke-width="2" points="1006.69,-549.71 1002.21,-540.1 999.72,-550.4 1006.69,-549.71"/>
</g>
<!-- 43&#45;&gt;42 -->
<g id="edge67" class="edge">
<title>43&#45;&gt;42</title>
<path fill="none" stroke="grey" stroke-width="2" d="M1260.47,-653.83C1209.66,-642.01 1129.18,-623.3 1072.67,-610.16"/>
<polygon fill="grey" stroke="grey" stroke-width="2" points="1073.29,-606.71 1062.76,-607.85 1071.71,-613.53 1073.29,-606.71"/>
</g>
<!-- 44 -->
<g id="node45" class="node">
<title>44</title>
<path fill="none" stroke="#88d856" stroke-width="2" stroke-dasharray="5,2" d="M1387.5,-905C1387.5,-905 1285.5,-905 1285.5,-905 1279.5,-905 1273.5,-899 1273.5,-893 1273.5,-893 1273.5,-876 1273.5,-876 1273.5,-870 1279.5,-864 1285.5,-864 1285.5,-864 1387.5,-864 1387.5,-864 1393.5,-864 1399.5,-870 1399.5,-876 1399.5,-876 1399.5,-893 1399.5,-893 1399.5,-899 1393.5,-905 1387.5,-905"/>
<text text-anchor="middle" x="1336.5" y="-893" font-family="sans" font-size="10.00">moco_scan_bzeros_4d</text>
<text text-anchor="middle" x="1336.5" y="-882" font-family="sans" font-size="10.00">acq: LR</text>
<text text-anchor="middle" x="1336.5" y="-871" font-family="sans" font-size="10.00">subject: 001</text>
</g>
<!-- 44&#45;&gt;43 -->
<g id="edge69" class="edge">
<title>44&#45;&gt;43</title>
<path fill="none" stroke="grey" stroke-width="2" d="M1341.96,-863.82C1349.68,-832.53 1361.19,-769.9 1345.5,-720 1342.4,-710.15 1336.75,-700.53 1330.78,-692.25"/>
<polygon fill="grey" stroke="grey" stroke-width="2" points="1333.41,-689.94 1324.54,-684.15 1327.87,-694.21 1333.41,-689.94"/>
</g>
<!-- 47 -->
<g id="node48" class="node">
<title>47</title>
<path fill="none" stroke="#97d856" stroke-width="2" stroke-dasharray="5,2" d="M1129.5,-828C1129.5,-828 1055.5,-828 1055.5,-828 1049.5,-828 1043.5,-822 1043.5,-816 1043.5,-816 1043.5,-804 1043.5,-804 1043.5,-798 1049.5,-792 1055.5,-792 1055.5,-792 1129.5,-792 1129.5,-792 1135.5,-792 1141.5,-798 1141.5,-804 1141.5,-804 1141.5,-816 1141.5,-816 1141.5,-822 1135.5,-828 1129.5,-828"/>
<text text-anchor="middle" x="1092.5" y="-807.5" font-family="sans" font-size="10.00">moco_bzeros_3d</text>
</g>
<!-- 44&#45;&gt;47 -->
<g id="edge79" class="edge">
<title>44&#45;&gt;47</title>
<path fill="none" stroke="grey" stroke-width="2" d="M1273.35,-864.74C1235.63,-853.53 1188.04,-839.39 1151.15,-828.43"/>
<polygon fill="grey" stroke="grey" stroke-width="2" points="1152.11,-825.06 1141.53,-825.57 1150.12,-831.77 1152.11,-825.06"/>
</g>
<!-- 45&#45;&gt;44 -->
<g id="edge74" class="edge">
<title>45&#45;&gt;44</title>
<path fill="none" stroke="grey" stroke-width="2" d="M1336.5,-940.79C1336.5,-932.96 1336.5,-923.77 1336.5,-915.16"/>
<polygon fill="grey" stroke="grey" stroke-width="2" points="1340,-915.07 1336.5,-905.07 1333,-915.07 1340,-915.07"/>
</g>
<!-- 46&#45;&gt;43 -->
<g id="edge72" class="edge">
<title>46&#45;&gt;43</title>
<path fill="none" stroke="grey" stroke-width="2" d="M1251.29,-719.7C1260.67,-711.05 1272.18,-700.45 1282.41,-691.03"/>
<polygon fill="grey" stroke="grey" stroke-width="2" points="1284.95,-693.45 1289.93,-684.1 1280.2,-688.3 1284.95,-693.45"/>
</g>
<!-- 46&#45;&gt;50 -->
<g id="edge87" class="edge">
<title>46&#45;&gt;50</title>
<path fill="none" stroke="grey" stroke-width="2" d="M1199.61,-723.31C1196.54,-722.15 1193.47,-721.03 1190.5,-720 1149.22,-705.71 1101.82,-692.06 1065.6,-682.19"/>
<polygon fill="grey" stroke="grey" stroke-width="2" points="1066.27,-678.74 1055.7,-679.51 1064.44,-685.5 1066.27,-678.74"/>
</g>
<!-- 46&#45;&gt;54 -->
<g id="edge95" class="edge">
<title>46&#45;&gt;54</title>
<path fill="none" stroke="grey" stroke-width="2" d="M1235.2,-719.69C1238.25,-701.57 1243.82,-672.41 1251.5,-648 1277.57,-565.17 1294.55,-548.34 1327.5,-468 1347.1,-420.2 1342.3,-403.29 1370.5,-360 1377.25,-349.64 1386.24,-339.61 1394.84,-331.1"/>
<polygon fill="grey" stroke="grey" stroke-width="2" points="1397.41,-333.49 1402.24,-324.06 1392.59,-328.42 1397.41,-333.49"/>
</g>
<!-- 47&#45;&gt;46 -->
<g id="edge77" class="edge">
<title>47&#45;&gt;46</title>
<path fill="none" stroke="grey" stroke-width="2" d="M1126.75,-791.88C1145.98,-782.26 1170.14,-770.18 1190.51,-760"/>
<polygon fill="grey" stroke="grey" stroke-width="2" points="1192.19,-763.07 1199.57,-755.47 1189.06,-756.81 1192.19,-763.07"/>
</g>
<!-- 48 -->
<g id="node49" class="node">
<title>48</title>
<path fill="none" stroke="#88d856" stroke-width="2" stroke-dasharray="5,2" d="M876.5,-905C876.5,-905 774.5,-905 774.5,-905 768.5,-905 762.5,-899 762.5,-893 762.5,-893 762.5,-876 762.5,-876 762.5,-870 768.5,-864 774.5,-864 774.5,-864 876.5,-864 876.5,-864 882.5,-864 888.5,-870 888.5,-876 888.5,-876 888.5,-893 888.5,-893 888.5,-899 882.5,-905 876.5,-905"/>
<text text-anchor="middle" x="825.5" y="-893" font-family="sans" font-size="10.00">moco_scan_bzeros_4d</text>
<text text-anchor="middle" x="825.5" y="-882" font-family="sans" font-size="10.00">acq: RL</text>
<text text-anchor="middle" x="825.5" y="-871" font-family="sans" font-size="10.00">subject: 001</text>
</g>
<!-- 48&#45;&gt;47 -->
<g id="edge80" class="edge">
<title>48&#45;&gt;47</title>
<path fill="none" stroke="grey" stroke-width="2" d="M888.78,-866.32C932.7,-854.39 990.79,-838.62 1033.71,-826.96"/>
<polygon fill="grey" stroke="grey" stroke-width="2" points="1034.71,-830.32 1043.44,-824.32 1032.88,-823.56 1034.71,-830.32"/>
</g>
<!-- 48&#45;&gt;50 -->
<g id="edge84" class="edge">
<title>48&#45;&gt;50</title>
<path fill="none" stroke="grey" stroke-width="2" d="M841.97,-863.91C875.1,-824.5 949.74,-735.7 986.39,-692.11"/>
<polygon fill="grey" stroke="grey" stroke-width="2" points="989.23,-694.18 992.98,-684.27 983.87,-689.67 989.23,-694.18"/>
</g>
<!-- 49&#45;&gt;48 -->
<g id="edge81" class="edge">
<title>49&#45;&gt;48</title>
<path fill="none" stroke="grey" stroke-width="2" d="M342.36,-940.99C475.21,-925.73 653.41,-905.27 752.04,-893.94"/>
<polygon fill="grey" stroke="grey" stroke-width="2" points="752.68,-897.39 762.21,-892.77 751.88,-890.43 752.68,-897.39"/>
</g>
<!-- 50&#45;&gt;42 -->
<g id="edge68" class="edge">
<title>50&#45;&gt;42</title>
<path fill="none" stroke="grey" stroke-width="2" d="M1007.5,-647.7C1007.5,-639.98 1007.5,-630.71 1007.5,-622.11"/>
<polygon fill="grey" stroke="grey" stroke-width="2" points="1011,-622.1 1007.5,-612.1 1004,-622.1 1011,-622.1"/>
</g>
<!-- 51&#45;&gt;18 -->
<g id="edge33" class="edge">
<title>51&#45;&gt;18</title>
<path fill="none" stroke="grey" stroke-width="2" d="M1562.37,-359.81C1543.57,-339.53 1509.53,-306.28 1473.5,-288 1421.15,-261.44 1355.17,-247.93 1308.23,-241.22"/>
<polygon fill="grey" stroke="grey" stroke-width="2" points="1308.6,-237.74 1298.21,-239.86 1307.65,-244.68 1308.6,-237.74"/>
</g>
<!-- 51&#45;&gt;54 -->
<g id="edge100" class="edge">
<title>51&#45;&gt;54</title>
<path fill="none" stroke="grey" stroke-width="2" d="M1539.58,-359.88C1518.49,-350.35 1492.04,-338.41 1469.63,-328.28"/>
<polygon fill="grey" stroke="grey" stroke-width="2" points="1470.85,-324.99 1460.29,-324.07 1467.97,-331.37 1470.85,-324.99"/>
</g>
<!-- 51&#45;&gt;55 -->
<g id="edge105" class="edge">
<title>51&#45;&gt;55</title>
<path fill="none" stroke="grey" stroke-width="2" d="M1577.5,-359.87C1577.5,-335.67 1577.5,-291.21 1577.5,-262.39"/>
<polygon fill="grey" stroke="grey" stroke-width="2" points="1581,-262.19 1577.5,-252.19 1574,-262.19 1581,-262.19"/>
</g>
<!-- 52&#45;&gt;54 -->
<g id="edge101" class="edge">
<title>52&#45;&gt;54</title>
<path fill="none" stroke="grey" stroke-width="2" d="M1677.69,-575.93C1641.81,-537.25 1551.4,-440.08 1474.5,-360 1465.43,-350.56 1455.37,-340.26 1446.54,-331.28"/>
<polygon fill="grey" stroke="grey" stroke-width="2" points="1448.97,-328.76 1439.46,-324.09 1443.98,-333.67 1448.97,-328.76"/>
</g>
<!-- 52&#45;&gt;55 -->
<g id="edge106" class="edge">
<title>52&#45;&gt;55</title>
<path fill="none" stroke="grey" stroke-width="2" d="M1693.7,-575.95C1693.99,-549.29 1694.5,-496.12 1694.5,-451 1694.5,-451 1694.5,-451 1694.5,-377 1694.5,-336.03 1695.56,-320.41 1670.5,-288 1658.13,-272 1639.47,-260.02 1622.1,-251.54"/>
<polygon fill="grey" stroke="grey" stroke-width="2" points="1623.18,-248.19 1612.63,-247.19 1620.25,-254.54 1623.18,-248.19"/>
</g>
<!-- 53&#45;&gt;54 -->
<g id="edge96" class="edge">
<title>53&#45;&gt;54</title>
<path fill="none" stroke="grey" stroke-width="2" d="M1563.01,-1017.81C1561.12,-998.8 1557.26,-967.37 1550.5,-941 1509.76,-782.18 1422.5,-758.96 1422.5,-595 1422.5,-595 1422.5,-595 1422.5,-449 1422.5,-409 1422.5,-362.65 1422.5,-334.08"/>
<polygon fill="grey" stroke="grey" stroke-width="2" points="1426,-334.05 1422.5,-324.05 1419,-334.05 1426,-334.05"/>
</g>
<!-- 54&#45;&gt;18 -->
<g id="edge34" class="edge">
<title>54&#45;&gt;18</title>
<path fill="none" stroke="grey" stroke-width="2" d="M1380.38,-288.05C1356.3,-278.37 1325.9,-266.14 1300.36,-255.86"/>
<polygon fill="grey" stroke="grey" stroke-width="2" points="1301.42,-252.52 1290.84,-252.03 1298.81,-259.01 1301.42,-252.52"/>
</g>
<!-- 54&#45;&gt;55 -->
<g id="edge107" class="edge">
<title>54&#45;&gt;55</title>
<path fill="none" stroke="grey" stroke-width="2" d="M1460.42,-287.88C1482.39,-277.95 1510.18,-265.4 1533.16,-255.02"/>
<polygon fill="grey" stroke="grey" stroke-width="2" points="1534.69,-258.17 1542.36,-250.87 1531.81,-251.79 1534.69,-258.17"/>
</g>
<!-- 55&#45;&gt;0 -->
<g id="edge4" class="edge">
<title>55&#45;&gt;0</title>
<path fill="none" stroke="grey" stroke-width="2" d="M1542.33,-222.92C1452.14,-197.13 1205.21,-126.94 998.5,-72 938.34,-56.01 868.15,-38.43 826.35,-28.07"/>
<polygon fill="grey" stroke="grey" stroke-width="2" points="827.15,-24.67 816.61,-25.66 825.47,-31.46 827.15,-24.67"/>
</g>
</g>
</svg>
